<?xml version="1.0" standalone="no"?>
<!DOCTYPE svg PUBLIC "-//W3C//DTD SVG 20010904//EN"
 "http://www.w3.org/TR/2001/REC-SVG-20010904/DTD/svg10.dtd">
<svg version="1.0" xmlns="http://www.w3.org/2000/svg"
 width="512.000000pt" height="512.000000pt" viewBox="0 0 512.000000 512.000000"
 preserveAspectRatio="xMidYMid meet">

<g transform="translate(0.000000,512.000000) scale(0.100000,-0.100000)"
fill="#000000" stroke="none">
<path d="M3861 5110 c-57 -12 -157 -60 -201 -96 -20 -16 -138 -133 -263 -261
l-227 -232 0 -47 0 -48 617 -618 c339 -339 629 -622 645 -629 67 -27 83 -15
348 249 256 256 292 301 321 407 8 28 14 84 14 125 0 89 -17 155 -58 230 -37
69 -787 823 -858 864 -25 14 -68 33 -95 41 -62 19 -186 27 -243 15z"/>
<path d="M2903 4243 c-18 -10 -570 -561 -1227 -1225 l-1195 -1207 -25 -83
c-85 -282 -456 -1597 -456 -1616 0 -53 62 -112 117 -112 10 0 393 108 851 239
l833 239 167 163 c92 90 641 634 1220 1208 789 784 1054 1053 1061 1077 18 65
9 78 -228 317 -124 126 -238 235 -253 243 -34 18 -72 18 -106 0 -15 -8 -532
-520 -1149 -1138 -905 -907 -1122 -1129 -1128 -1156 -5 -22 -1 -44 12 -70 15
-31 34 -45 125 -92 l108 -55 0 -152 0 -152 -52 -16 c-29 -8 -154 -44 -278 -80
l-225 -64 -282 282 -282 282 64 225 c36 124 72 249 80 278 l16 52 152 0 152 0
53 -105 c53 -104 77 -131 117 -135 76 -8 20 -60 1202 1122 631 630 1130 1138
1139 1156 33 71 24 85 -224 336 -260 262 -286 279 -359 239z"/>
</g>
</svg>
