<?xml version="1.0" encoding="UTF-8"?>
<!DOCTYPE svg PUBLIC "-//W3C//DTD SVG 1.1//EN" "http://www.w3.org/Graphics/SVG/1.1/DTD/svg11.dtd">
<svg xmlns="http://www.w3.org/2000/svg" version="1.1" width="500px" height="485px" style="shape-rendering:geometricPrecision; text-rendering:geometricPrecision; image-rendering:optimizeQuality; fill-rule:evenodd; clip-rule:evenodd" xmlns:xlink="http://www.w3.org/1999/xlink">
<g><path style="opacity:0.103" fill="#f2f2f2" d="M 108.5,21.5 C 111.5,21.5 114.5,21.5 117.5,21.5C 129.125,36.0481 140.291,51.0481 151,66.5C 159.242,78.7176 166.575,91.3843 173,104.5C 173.828,109.202 173.662,113.869 172.5,118.5C 171.928,120.917 170.928,123.084 169.5,125C 173.696,125.664 177.862,125.497 182,124.5C 187.18,125.04 192.347,125.706 197.5,126.5C 199.965,127.795 201.965,129.462 203.5,131.5C 199.802,131.448 196.135,131.114 192.5,130.5C 182.729,127.018 172.729,126.684 162.5,129.5C 161.5,129.167 160.5,128.833 159.5,128.5C 160.63,127.378 161.297,126.044 161.5,124.5C 167.261,118.674 168.928,111.674 166.5,103.5C 162.836,96.5317 158.836,89.865 154.5,83.5C 154.167,83.5 153.833,83.5 153.5,83.5C 152.521,79.5395 150.521,76.2061 147.5,73.5C 144.075,68.3139 140.408,63.3139 136.5,58.5C 135.238,55.2433 133.238,52.5767 130.5,50.5C 128.539,46.9154 126.872,43.2487 125.5,39.5C 124.127,39.6567 122.793,39.49 121.5,39C 120.649,36.3827 118.982,34.5494 116.5,33.5C 116.672,32.5084 116.338,31.8417 115.5,31.5C 113.646,27.7792 111.313,24.4459 108.5,21.5 Z"/></g>
<g><path style="opacity:0.989" fill="#080808" d="M 412.5,27.5 C 415.785,30.1185 418.785,33.1185 421.5,36.5C 425.47,38.4914 429.136,40.8248 432.5,43.5C 435.871,46.8715 439.537,49.8715 443.5,52.5C 444.583,52.5394 445.583,52.8728 446.5,53.5C 449.523,58.1855 453.19,62.1855 457.5,65.5C 459.122,68.4549 461.122,71.1215 463.5,73.5C 464.604,75.3885 465.937,77.0552 467.5,78.5C 472.194,84.0259 476.694,89.6926 481,95.5C 481.41,96.9007 481.91,98.234 482.5,99.5C 484.288,102.228 484.788,105.228 484,108.5C 481.625,109.715 479.791,111.381 478.5,113.5C 474.518,116.476 470.518,119.476 466.5,122.5C 462.296,124.033 458.963,126.7 456.5,130.5C 454.142,132.529 451.808,134.529 449.5,136.5C 446.454,136.725 444.121,138.058 442.5,140.5C 439.573,141.65 436.573,142.65 433.5,143.5C 430.785,146.882 427.785,149.882 424.5,152.5C 417.891,157.763 410.558,161.763 402.5,164.5C 402.5,168.175 404.167,170.841 407.5,172.5C 409.3,174.828 410.467,177.495 411,180.5C 414.476,183.461 417.309,186.794 419.5,190.5C 421.13,196.018 423.13,201.352 425.5,206.5C 426.796,219.468 426.796,232.468 425.5,245.5C 424.667,246.5 423.833,247.5 423,248.5C 421.879,258.26 419.379,267.593 415.5,276.5C 410.189,284.475 403.856,291.475 396.5,297.5C 395.486,298.674 394.153,299.34 392.5,299.5C 386.13,303.511 379.13,305.511 371.5,305.5C 361.473,305.699 351.473,305.366 341.5,304.5C 341.182,309.032 341.515,313.366 342.5,317.5C 342.842,318.338 343.508,318.672 344.5,318.5C 357.167,331.833 370.167,344.833 383.5,357.5C 387.833,362.167 392.167,366.833 396.5,371.5C 401.441,378.11 407.108,384.11 413.5,389.5C 417.225,392.888 420.558,396.554 423.5,400.5C 423.5,401.167 423.5,401.833 423.5,402.5C 425.062,409.291 424.729,415.958 422.5,422.5C 421.653,423.966 420.32,424.8 418.5,425C 413.845,425.499 409.179,425.666 404.5,425.5C 400.009,421.74 395.676,417.74 391.5,413.5C 379.75,401.142 367.416,389.475 354.5,378.5C 350.167,374.5 345.833,370.5 341.5,366.5C 341.196,365.85 340.863,365.183 340.5,364.5C 337.553,363.679 334.553,363.179 331.5,363C 329.934,362.392 328.6,361.558 327.5,360.5C 322.703,357.459 317.37,356.126 311.5,356.5C 308.417,354.975 305.084,353.975 301.5,353.5C 301.389,352.883 301.056,352.383 300.5,352C 286.387,348.543 272.053,347.21 257.5,348C 256.584,348.278 255.918,348.778 255.5,349.5C 252.15,349.335 248.817,349.502 245.5,350C 240.891,350.771 236.558,351.938 232.5,353.5C 220.627,353.807 209.293,356.141 198.5,360.5C 195.515,361.326 192.849,362.659 190.5,364.5C 187.302,365.036 184.635,364.369 182.5,362.5C 181.772,359.921 181.272,357.254 181,354.5C 180.275,353.941 179.442,353.608 178.5,353.5C 174.441,356.557 171.107,360.224 168.5,364.5C 168.167,365.5 167.5,366.167 166.5,366.5C 161.312,370.605 156.646,375.272 152.5,380.5C 146.833,384.167 142.167,388.833 138.5,394.5C 132.418,398.224 127.084,402.89 122.5,408.5C 121.167,410.167 119.833,411.833 118.5,413.5C 116.5,415.167 114.5,416.833 112.5,418.5C 108.886,420.307 105.22,422.14 101.5,424C 85.9628,426.296 79.9628,419.796 83.5,404.5C 84.1667,403.167 84.8333,401.833 85.5,400.5C 88.0442,399.292 89.3775,397.292 89.5,394.5C 92.0892,393.581 94.0892,391.914 95.5,389.5C 109.315,375.846 123.149,362.512 137,349.5C 137.483,348.552 137.649,347.552 137.5,346.5C 138.11,345.609 138.443,344.609 138.5,343.5C 139.167,343.5 139.833,343.5 140.5,343.5C 146.833,339.167 152.167,333.833 156.5,327.5C 159.167,324.167 161.833,320.833 164.5,317.5C 168.073,316.126 170.739,313.792 172.5,310.5C 175.215,311.404 177.382,310.404 179,307.5C 179.667,303.833 179.667,300.167 179,296.5C 174.137,293.479 169.304,290.479 164.5,287.5C 162.596,287.262 161.262,286.262 160.5,284.5C 160.196,283.85 159.863,283.183 159.5,282.5C 155.688,281.664 152.355,279.997 149.5,277.5C 147.246,276.876 145.579,275.543 144.5,273.5C 139.443,267.441 133.776,262.107 127.5,257.5C 123.062,251.61 118.395,245.943 113.5,240.5C 110.377,233.728 106.71,227.395 102.5,221.5C 100.403,216.785 99.07,211.785 98.5,206.5C 98.3338,200.491 98.5005,194.491 99,188.5C 101.481,182.589 103.648,176.589 105.5,170.5C 107.074,168.898 107.741,166.898 107.5,164.5C 102.628,162.957 97.9616,160.957 93.5,158.5C 90.755,156.825 88.0883,155.158 85.5,153.5C 76.6052,145.041 66.6052,138.041 55.5,132.5C 53.5178,131.193 51.5178,129.859 49.5,128.5C 45.6254,123.889 41.292,119.722 36.5,116C 34.8455,115.392 33.1789,114.892 31.5,114.5C 31.1667,114.5 30.8333,114.5 30.5,114.5C 28.8545,112.188 26.8545,110.188 24.5,108.5C 23.5258,106.257 23.1924,103.924 23.5,101.5C 26.5162,98.4797 29.1829,95.1464 31.5,91.5C 31.5,90.1667 32.1667,89.5 33.5,89.5C 34.5,89.5 35.5,89.5 36.5,89.5C 38.1667,86.1667 39.8333,82.8333 41.5,79.5C 44.7306,73.601 48.7306,68.2676 53.5,63.5C 57.1326,63.2008 59.1326,61.2008 59.5,57.5C 62.8333,55.5 65.5,52.8333 67.5,49.5C 68.552,49.6495 69.552,49.4828 70.5,49C 73.3925,46.2655 76.3925,43.7655 79.5,41.5C 84.4057,38.9297 88.7391,35.5964 92.5,31.5C 94.8785,29.1223 97.5451,27.1223 100.5,25.5C 102.782,24.6103 105.115,24.4436 107.5,25C 109.746,27.7517 112.412,29.9184 115.5,31.5C 116.338,31.8417 116.672,32.5084 116.5,33.5C 120.225,38.8329 124.058,44.1662 128,49.5C 128.671,50.2524 129.504,50.5858 130.5,50.5C 130.238,54.9 132.238,57.5667 136.5,58.5C 140.408,63.3139 144.075,68.3139 147.5,73.5C 148.283,77.6052 150.283,80.9385 153.5,83.5C 153.833,83.5 154.167,83.5 154.5,83.5C 153.838,88.3566 155.671,92.0232 160,94.5C 162.666,99.4854 164.833,104.652 166.5,110C 166.333,111.167 166.167,112.333 166,113.5C 163.493,117.851 160.993,122.184 158.5,126.5C 156.025,127.687 155.025,129.687 155.5,132.5C 165.823,131.651 176.157,131.485 186.5,132C 194.246,134.561 202.246,136.061 210.5,136.5C 215.47,137.495 220.47,137.995 225.5,138C 227.996,136.669 229.996,134.836 231.5,132.5C 232.766,131.91 234.099,131.41 235.5,131C 245.587,120.242 256.254,110.242 267.5,101C 271.995,99.1888 275.995,96.5222 279.5,93C 280.793,92.51 282.127,92.3433 283.5,92.5C 283.5,91.5 283.5,90.5 283.5,89.5C 284.167,89.5 284.833,89.5 285.5,89.5C 296.759,85.5275 308.092,85.5275 319.5,89.5C 319.833,89.5 320.167,89.5 320.5,89.5C 321.81,91.1477 323.143,92.8144 324.5,94.5C 328.888,97.0225 332.888,100.022 336.5,103.5C 337.6,104.605 338.267,105.938 338.5,107.5C 340.198,110.124 342.031,110.124 344,107.5C 346.267,101.363 348.767,95.3625 351.5,89.5C 351.354,86.4461 352.687,84.4461 355.5,83.5C 357.691,79.7939 360.524,76.4605 364,73.5C 367.896,66.2746 372.563,59.6079 378,53.5C 380.02,50.3018 381.854,46.9685 383.5,43.5C 386.896,40.7684 389.563,37.4351 391.5,33.5C 392.488,32.205 393.488,30.8717 394.5,29.5C 396.104,28.713 396.771,27.3797 396.5,25.5C 398.973,25.2009 401.14,24.2009 403,22.5C 406.442,23.8025 409.609,25.4692 412.5,27.5 Z M 113.5,63.5 C 113.238,64.9778 113.571,66.3112 114.5,67.5C 116.122,68.9328 117.455,70.5995 118.5,72.5C 119.417,73.1272 120.417,73.4606 121.5,73.5C 121.5,73.8333 121.5,74.1667 121.5,74.5C 124.436,79.7711 128.436,84.1044 133.5,87.5C 134.46,89.4607 135.793,91.1274 137.5,92.5C 137.011,96.487 138.678,98.8203 142.5,99.5C 144.452,101.452 146.452,103.452 148.5,105.5C 149.466,107.396 149.799,109.396 149.5,111.5C 147.325,111.682 145.325,112.349 143.5,113.5C 141.666,112.246 139.666,111.579 137.5,111.5C 137.5,110.5 137.5,109.5 137.5,108.5C 137.719,107.325 137.386,106.325 136.5,105.5C 133.071,102.413 130.071,99.0792 127.5,95.5C 121.884,89.2122 116.218,82.8789 110.5,76.5C 108.134,73.7899 106.134,70.7899 104.5,67.5C 103.735,66.3881 102.735,65.7214 101.5,65.5C 97.8844,62.7146 94.7177,59.3813 92,55.5C 91.4138,52.2714 91.9138,49.2714 93.5,46.5C 95.604,46.2011 97.604,46.5344 99.5,47.5C 104.971,52.293 109.638,57.6264 113.5,63.5 Z M 417.5,52.5 C 416.265,52.7214 415.265,53.3881 414.5,54.5C 413.05,59.0735 410.383,62.7402 406.5,65.5C 405.571,66.6888 405.238,68.0222 405.5,69.5C 402.833,73.5 399.5,76.8333 395.5,79.5C 394.265,79.7214 393.265,80.3881 392.5,81.5C 391.176,84.4678 389.509,87.1345 387.5,89.5C 385.718,90.7196 383.718,91.3862 381.5,91.5C 381.116,93.9294 380.449,96.2627 379.5,98.5C 376.719,100.61 374.719,103.276 373.5,106.5C 372.032,107.779 371.365,109.446 371.5,111.5C 370.167,111.5 368.833,111.5 367.5,111.5C 365.282,111.386 363.282,110.72 361.5,109.5C 361.253,107.142 361.919,105.142 363.5,103.5C 364.122,101.878 365.122,100.545 366.5,99.5C 374.047,95.6199 379.047,89.6199 381.5,81.5C 381.5,80.1667 381.5,78.8333 381.5,77.5C 382.978,77.762 384.311,77.4287 385.5,76.5C 391.448,70.0377 397.114,63.371 402.5,56.5C 403.5,56.5 404.5,56.5 405.5,56.5C 405.614,54.2821 406.28,52.2821 407.5,50.5C 408.231,48.1108 409.898,46.7775 412.5,46.5C 415.998,46.9966 417.665,48.9966 417.5,52.5 Z M 71.5,65.5 C 78.2014,68.2014 82.8681,72.8681 85.5,79.5C 86.8333,79.5 88.1667,79.5 89.5,79.5C 89.8517,83.1825 91.8517,85.5158 95.5,86.5C 101.515,92.0152 107.015,98.0152 112,104.5C 119.278,110.275 126.111,116.608 132.5,123.5C 133.799,125.758 134.799,128.092 135.5,130.5C 133.443,132.856 130.776,133.856 127.5,133.5C 116.523,123.524 105.857,113.191 95.5,102.5C 92.5862,97.2494 88.5862,92.916 83.5,89.5C 80.6874,88.5539 79.354,86.5539 79.5,83.5C 78.0222,83.762 76.6888,83.4287 75.5,82.5C 73.1185,79.4517 70.4518,76.7851 67.5,74.5C 67.5,72.5 67.5,70.5 67.5,68.5C 67.5,67.8333 67.8333,67.5 68.5,67.5C 70.0269,67.573 71.0269,66.9063 71.5,65.5 Z M 437.5,65.5 C 440.711,66.3707 443.044,68.3707 444.5,71.5C 441.167,76.1667 437.167,80.1667 432.5,83.5C 431.571,84.6888 431.238,86.0222 431.5,87.5C 430.022,87.238 428.689,87.5713 427.5,88.5C 424.417,91.2424 421.751,94.2424 419.5,97.5C 415.96,97.3765 413.96,99.0432 413.5,102.5C 410.167,105.833 406.833,109.167 403.5,112.5C 399.469,113.865 396.802,116.531 395.5,120.5C 394.5,121.5 393.5,122.5 392.5,123.5C 389.714,125.279 386.714,126.612 383.5,127.5C 383.67,130.491 382.337,132.491 379.5,133.5C 377.464,132.115 375.464,130.782 373.5,129.5C 373.934,126.066 375.6,123.399 378.5,121.5C 378.833,121.5 379.167,121.5 379.5,121.5C 383.04,121.623 385.04,119.957 385.5,116.5C 388.281,114.39 390.281,111.724 391.5,108.5C 392.718,107.839 394.051,107.172 395.5,106.5C 399.615,101.241 403.948,96.2414 408.5,91.5C 410.514,91.6085 412.18,90.9418 413.5,89.5C 414.822,89.67 415.989,89.3366 417,88.5C 419.095,86.1134 420.595,83.4467 421.5,80.5C 426.206,75.4591 431.206,70.7925 436.5,66.5C 437.167,66.5 437.5,66.1667 437.5,65.5 Z M 50.5,91.5 C 53.8912,91.2971 56.8912,92.2971 59.5,94.5C 65.9455,99.2504 71.9455,104.584 77.5,110.5C 84.5854,113.717 90.5854,118.383 95.5,124.5C 101.438,129.099 107.105,134.099 112.5,139.5C 113.48,142.086 113.813,144.753 113.5,147.5C 111.508,147.328 109.842,147.995 108.5,149.5C 94.4161,137.674 80.4161,125.674 66.5,113.5C 64.6721,112.205 62.6721,111.205 60.5,110.5C 57.2693,106.765 53.6026,103.598 49.5,101C 48.1658,97.6654 48.4992,94.4988 50.5,91.5 Z M 450.5,93.5 C 451.5,93.5 452.5,93.5 453.5,93.5C 456.076,93.4679 458.409,94.1346 460.5,95.5C 460.5,96.8333 460.5,98.1667 460.5,99.5C 460.279,100.735 459.612,101.735 458.5,102.5C 454.793,104.894 451.127,107.227 447.5,109.5C 442.5,113.474 437.167,117.141 431.5,120.5C 430.37,121.622 429.703,122.956 429.5,124.5C 428.449,125.222 427.782,126.222 427.5,127.5C 424.446,127.354 422.446,128.687 421.5,131.5C 416.814,135.523 412.147,139.523 407.5,143.5C 404.29,143.87 401.623,145.203 399.5,147.5C 398.167,146.833 396.833,146.167 395.5,145.5C 395.5,144.167 395.5,142.833 395.5,141.5C 396.778,141.218 397.778,140.551 398.5,139.5C 402.469,138.198 405.135,135.531 406.5,131.5C 407.207,129.769 408.207,128.103 409.5,126.5C 413.891,124.645 417.891,122.311 421.5,119.5C 423.5,118.833 424.833,117.5 425.5,115.5C 426.406,113.583 427.739,111.917 429.5,110.5C 432.068,109.388 434.402,108.055 436.5,106.5C 439.522,105.478 441.522,103.478 442.5,100.5C 444.916,97.7423 447.583,95.4089 450.5,93.5 Z"/></g>
<g><path style="opacity:0.812" fill="#6e6e6e" d="M 399.5,21.5 C 402.167,21.5 404.833,21.5 407.5,21.5C 410.139,22.6147 411.805,24.6147 412.5,27.5C 409.609,25.4692 406.442,23.8025 403,22.5C 401.14,24.2009 398.973,25.2009 396.5,25.5C 396.771,27.3797 396.104,28.713 394.5,29.5C 394.892,27.8211 395.392,26.1545 396,24.5C 397.518,23.8366 398.685,22.8366 399.5,21.5 Z"/></g>
<g><path style="opacity:0.576" fill="#838383" d="M 101.5,21.5 C 102.167,21.5 102.833,21.5 103.5,21.5C 102.5,22.8333 101.5,24.1667 100.5,25.5C 97.5451,27.1223 94.8785,29.1223 92.5,31.5C 92.1667,31.5 91.8333,31.5 91.5,31.5C 92.4394,28.759 94.2728,26.759 97,25.5C 97.4828,24.552 97.6495,23.552 97.5,22.5C 99.099,22.7678 100.432,22.4345 101.5,21.5 Z"/></g>
<g><path style="opacity:0.973" fill="#313131" d="M 103.5,21.5 C 105.167,21.5 106.833,21.5 108.5,21.5C 111.313,24.4459 113.646,27.7792 115.5,31.5C 112.412,29.9184 109.746,27.7517 107.5,25C 105.115,24.4436 102.782,24.6103 100.5,25.5C 101.5,24.1667 102.5,22.8333 103.5,21.5 Z"/></g>
<g><path style="opacity:0.494" fill="#818181" d="M 412.5,27.5 C 416.895,30.5435 421.562,33.2102 426.5,35.5C 428.681,38.0873 430.681,40.754 432.5,43.5C 429.136,40.8248 425.47,38.4914 421.5,36.5C 418.785,33.1185 415.785,30.1185 412.5,27.5 Z"/></g>
<g><path style="opacity:0.843" fill="#434343" d="M 91.5,31.5 C 91.8333,31.5 92.1667,31.5 92.5,31.5C 88.7391,35.5964 84.4057,38.9297 79.5,41.5C 79.5,40.8333 79.5,40.1667 79.5,39.5C 83.5254,38.3144 86.5254,35.8144 88.5,32C 89.448,31.5172 90.448,31.3505 91.5,31.5 Z"/></g>
<g><path style="opacity:0.145" fill="#b0b0b0" d="M 79.5,39.5 C 79.5,40.1667 79.5,40.8333 79.5,41.5C 76.3925,43.7655 73.3925,46.2655 70.5,49C 69.552,49.4828 68.552,49.6495 67.5,49.5C 70.3629,44.7442 74.3629,41.4108 79.5,39.5 Z"/></g>
<g><path style="opacity:0.38" fill="#858585" d="M 391.5,33.5 C 389.563,37.4351 386.896,40.7684 383.5,43.5C 385.009,39.3155 387.676,35.9822 391.5,33.5 Z"/></g>
<g><path style="opacity:0.941" fill="#5e5e5e" d="M 116.5,33.5 C 118.982,34.5494 120.649,36.3827 121.5,39C 122.793,39.49 124.127,39.6567 125.5,39.5C 126.872,43.2487 128.539,46.9154 130.5,50.5C 129.504,50.5858 128.671,50.2524 128,49.5C 124.058,44.1662 120.225,38.8329 116.5,33.5 Z"/></g>
<g><path style="opacity:0.627" fill="#8c8c8c" d="M 432.5,43.5 C 434.737,44.449 437.071,45.1156 439.5,45.5C 440.385,48.0606 441.718,50.394 443.5,52.5C 439.537,49.8715 435.871,46.8715 432.5,43.5 Z"/></g>
<g><path style="opacity:0.851" fill="#727272" d="M 407.5,50.5 C 406.28,52.2821 405.614,54.2821 405.5,56.5C 404.5,56.5 403.5,56.5 402.5,56.5C 402.5,54.8333 402.5,53.1667 402.5,51.5C 404.216,51.3713 405.883,51.038 407.5,50.5 Z"/></g>
<g><path style="opacity:0.98" fill="#454545" d="M 130.5,50.5 C 133.238,52.5767 135.238,55.2433 136.5,58.5C 132.238,57.5667 130.238,54.9 130.5,50.5 Z"/></g>
<g><path style="opacity:0.808" fill="#616161" d="M 59.5,57.5 C 59.1326,61.2008 57.1326,63.2008 53.5,63.5C 54.8333,60.8333 56.8333,58.8333 59.5,57.5 Z"/></g>
<g><path style="opacity:0.506" fill="#606060" d="M 383.5,43.5 C 381.854,46.9685 380.02,50.3018 378,53.5C 372.563,59.6079 367.896,66.2746 364,73.5C 360.524,76.4605 357.691,79.7939 355.5,83.5C 356.025,78.4386 358.525,74.772 363,72.5C 363.494,70.8659 363.66,69.1992 363.5,67.5C 364.822,67.67 365.989,67.3366 367,66.5C 367.787,62.7169 369.454,59.3836 372,56.5C 373.2,54.5884 374.867,53.2551 377,52.5C 377.333,51.1667 377.667,49.8333 378,48.5C 380.239,47.1111 382.072,45.4444 383.5,43.5 Z"/></g>
<g><path style="opacity:0.718" fill="#414141" d="M 417.5,52.5 C 417.923,53.2646 418.257,54.0979 418.5,55C 417.2,57.4373 416.2,59.9373 415.5,62.5C 414.5,62.5 413.5,62.5 412.5,62.5C 412.5,63.5 412.5,64.5 412.5,65.5C 410.167,66.8333 407.833,68.1667 405.5,69.5C 405.238,68.0222 405.571,66.6888 406.5,65.5C 410.383,62.7402 413.05,59.0735 414.5,54.5C 415.265,53.3881 416.265,52.7214 417.5,52.5 Z"/></g>
<g><path style="opacity:0.278" fill="#a5a5a5" d="M 71.5,65.5 C 71.0269,66.9063 70.0269,67.573 68.5,67.5C 68.5,66.5 68.5,65.5 68.5,64.5C 69.791,64.2627 70.791,64.596 71.5,65.5 Z"/></g>
<g><path style="opacity:0.041" fill="#acacac" d="M 435.5,64.5 C 436.492,64.3284 437.158,64.6618 437.5,65.5C 437.5,66.1667 437.167,66.5 436.5,66.5C 435.662,66.1583 435.328,65.4916 435.5,64.5 Z"/></g>
<g><path style="opacity:0.672" fill="#4a4a4a" d="M 113.5,63.5 C 114.675,63.281 115.675,63.6143 116.5,64.5C 117.803,66.3768 119.303,68.0435 121,69.5C 121.49,70.7932 121.657,72.1266 121.5,73.5C 120.417,73.4606 119.417,73.1272 118.5,72.5C 117.455,70.5995 116.122,68.9328 114.5,67.5C 113.571,66.3112 113.238,64.9778 113.5,63.5 Z"/></g>
<g><path style="opacity:0.551" fill="#6a6a6a" d="M 67.5,68.5 C 67.5,70.5 67.5,72.5 67.5,74.5C 65.087,73.3202 64.087,71.3202 64.5,68.5C 65.5,68.5 66.5,68.5 67.5,68.5 Z"/></g>
<g><path style="opacity:0.655" fill="#b2b2b2" d="M 457.5,65.5 C 461.025,67.0246 463.025,69.6913 463.5,73.5C 461.122,71.1215 459.122,68.4549 457.5,65.5 Z"/></g>
<g><path style="opacity:0.643" fill="#3b3b3b" d="M 101.5,65.5 C 102.735,65.7214 103.735,66.3881 104.5,67.5C 106.134,70.7899 108.134,73.7899 110.5,76.5C 109.472,76.9258 108.139,76.9258 106.5,76.5C 104.053,73.2668 102.386,69.6001 101.5,65.5 Z"/></g>
<g><path style="opacity:0.082" fill="#3e3e3e" d="M 435.5,64.5 C 435.328,65.4916 435.662,66.1583 436.5,66.5C 431.206,70.7925 426.206,75.4591 421.5,80.5C 419.33,82.0862 416.996,83.4196 414.5,84.5C 416.952,80.2425 420.285,76.9091 424.5,74.5C 426.96,69.7009 430.626,66.3675 435.5,64.5 Z"/></g>
<g><path style="opacity:0.941" fill="#686868" d="M 147.5,73.5 C 150.521,76.2061 152.521,79.5395 153.5,83.5C 150.283,80.9385 148.283,77.6052 147.5,73.5 Z"/></g>
<g><path style="opacity:0.827" fill="#434343" d="M 41.5,79.5 C 39.8333,82.8333 38.1667,86.1667 36.5,89.5C 35.5,89.5 34.5,89.5 33.5,89.5C 34.7474,84.992 37.4141,81.6587 41.5,79.5 Z"/></g>
<g><path style="opacity:0.192" fill="#939393" d="M 293.5,83.5 C 298.944,82.8917 303.944,83.5583 308.5,85.5C 303.167,85.5 297.833,85.5 292.5,85.5C 292.833,84.8333 293.167,84.1667 293.5,83.5 Z"/></g>
<g><path style="opacity:0.335" fill="#bfbfbf" d="M 421.5,80.5 C 420.595,83.4467 419.095,86.1134 417,88.5C 415.989,89.3366 414.822,89.67 413.5,89.5C 413.5,88.5 413.5,87.5 413.5,86.5C 413.833,85.8333 414.167,85.1667 414.5,84.5C 416.996,83.4196 419.33,82.0862 421.5,80.5 Z"/></g>
<g><path style="opacity:0.408" fill="#4b4b4b" d="M 121.5,74.5 C 125.879,75.4446 129.379,77.7779 132,81.5C 132.813,83.4357 133.313,85.4357 133.5,87.5C 128.436,84.1044 124.436,79.7711 121.5,74.5 Z"/></g>
<g><path style="opacity:0.6" fill="#565656" d="M 292.5,85.5 C 297.833,85.5 303.167,85.5 308.5,85.5C 312.898,85.1302 316.564,86.4635 319.5,89.5C 308.092,85.5275 296.759,85.5275 285.5,89.5C 287.292,87.4307 289.626,86.0974 292.5,85.5 Z"/></g>
<g><path style="opacity:0.518" fill="#3a3a3a" d="M 395.5,79.5 C 394.643,84.7862 391.976,88.7862 387.5,91.5C 387.5,90.8333 387.5,90.1667 387.5,89.5C 389.509,87.1345 391.176,84.4678 392.5,81.5C 393.265,80.3881 394.265,79.7214 395.5,79.5 Z"/></g>
<g><path style="opacity:0.223" fill="#4c4c4c" d="M 413.5,86.5 C 413.5,87.5 413.5,88.5 413.5,89.5C 412.18,90.9418 410.514,91.6085 408.5,91.5C 408.5,88.1667 410.167,86.5 413.5,86.5 Z"/></g>
<g><path style="opacity:0.647" fill="#525252" d="M 283.5,89.5 C 283.5,90.5 283.5,91.5 283.5,92.5C 282.127,92.3433 280.793,92.51 279.5,93C 275.995,96.5222 271.995,99.1888 267.5,101C 256.254,110.242 245.587,120.242 235.5,131C 234.099,131.41 232.766,131.91 231.5,132.5C 231.557,131.391 231.89,130.391 232.5,129.5C 234.167,128.5 235.5,127.167 236.5,125.5C 242.696,121.981 248.029,117.314 252.5,111.5C 254.206,107.638 257.206,105.472 261.5,105C 267.94,98.5404 275.273,93.3738 283.5,89.5 Z"/></g>
<g><path style="opacity:0.026" fill="#eaeaea" d="M 399.5,21.5 C 398.685,22.8366 397.518,23.8366 396,24.5C 395.392,26.1545 394.892,27.8211 394.5,29.5C 393.488,30.8717 392.488,32.205 391.5,33.5C 387.676,35.9822 385.009,39.3155 383.5,43.5C 382.072,45.4444 380.239,47.1111 378,48.5C 377.667,49.8333 377.333,51.1667 377,52.5C 374.867,53.2551 373.2,54.5884 372,56.5C 369.454,59.3836 367.787,62.7169 367,66.5C 365.989,67.3366 364.822,67.67 363.5,67.5C 363.66,69.1992 363.494,70.8659 363,72.5C 358.525,74.772 356.025,78.4386 355.5,83.5C 352.687,84.4461 351.354,86.4461 351.5,89.5C 350.265,89.7214 349.265,90.3881 348.5,91.5C 345.362,96.4369 343.362,101.77 342.5,107.5C 341.167,107.5 339.833,107.5 338.5,107.5C 338.267,105.938 337.6,104.605 336.5,103.5C 333.636,96.0599 328.302,91.3933 320.5,89.5C 320.167,89.5 319.833,89.5 319.5,89.5C 316.564,86.4635 312.898,85.1302 308.5,85.5C 303.944,83.5583 298.944,82.8917 293.5,83.5C 310.937,79.3126 325.937,83.8126 338.5,97C 339.833,97.6667 341.167,97.6667 342.5,97C 358.208,71.1038 375.541,46.2705 394.5,22.5C 396.071,21.6906 397.738,21.3573 399.5,21.5 Z"/></g>
<g><path style="opacity:0.316" fill="#bdbdbd" d="M 460.5,95.5 C 458.409,94.1346 456.076,93.4679 453.5,93.5C 453.5,92.5 453.5,91.5 453.5,90.5C 455.527,90.3379 457.527,90.5045 459.5,91C 460.38,92.3561 460.714,93.8561 460.5,95.5 Z"/></g>
<g><path style="opacity:0.195" fill="#b8b8b8" d="M 381.5,81.5 C 379.047,89.6199 374.047,95.6199 366.5,99.5C 366.351,98.448 366.517,97.448 367,96.5C 370.256,94.3183 372.256,91.3183 373,87.5C 375.027,86.3067 376.527,84.64 377.5,82.5C 378.689,81.5713 380.022,81.238 381.5,81.5 Z"/></g>
<g><path style="opacity:0.855" fill="#9b9b9b" d="M 467.5,78.5 C 470.007,78.9962 472.007,80.3295 473.5,82.5C 475.789,87.0415 478.789,91.0415 482.5,94.5C 483.788,96.7388 484.788,99.0721 485.5,101.5C 484.5,100.833 483.5,100.167 482.5,99.5C 481.91,98.234 481.41,96.9007 481,95.5C 476.694,89.6926 472.194,84.0259 467.5,78.5 Z"/></g>
<g><path style="opacity:0.444" fill="#8e8e8e" d="M 387.5,89.5 C 387.5,90.1667 387.5,90.8333 387.5,91.5C 386.088,93.7602 384.421,95.9269 382.5,98C 381.552,98.4828 380.552,98.6495 379.5,98.5C 380.449,96.2627 381.116,93.9294 381.5,91.5C 383.718,91.3862 385.718,90.7196 387.5,89.5 Z"/></g>
<g><path style="opacity:0.569" fill="#5a5a5a" d="M 83.5,89.5 C 88.5862,92.916 92.5862,97.2494 95.5,102.5C 89.4437,100.109 85.4437,95.7754 83.5,89.5 Z"/></g>
<g><path style="opacity:0.569" fill="#808080" d="M 31.5,91.5 C 29.1829,95.1464 26.5162,98.4797 23.5,101.5C 25.2133,98.14 26.8799,94.8067 28.5,91.5C 29.5,91.5 30.5,91.5 31.5,91.5 Z"/></g>
<g><path style="opacity:0.741" fill="#414141" d="M 460.5,99.5 C 460.5,98.1667 460.5,96.8333 460.5,95.5C 460.714,93.8561 460.38,92.3561 459.5,91C 457.527,90.5045 455.527,90.3379 453.5,90.5C 453.5,91.5 453.5,92.5 453.5,93.5C 452.5,93.5 451.5,93.5 450.5,93.5C 450.33,92.1779 450.663,91.0113 451.5,90C 459.758,87.2819 463.591,90.1153 463,98.5C 462.329,99.2524 461.496,99.5858 460.5,99.5 Z"/></g>
<g><path style="opacity:0.455" fill="#474747" d="M 127.5,95.5 C 130.071,99.0792 133.071,102.413 136.5,105.5C 137.386,106.325 137.719,107.325 137.5,108.5C 134.381,107.182 131.714,105.182 129.5,102.5C 128.056,100.392 127.39,98.0588 127.5,95.5 Z"/></g>
<g><path style="opacity:0.047" fill="#a5a5a5" d="M 137.5,92.5 C 141.322,93.1797 142.989,95.513 142.5,99.5C 138.678,98.8203 137.011,96.487 137.5,92.5 Z"/></g>
<g><path style="opacity:0.049" fill="#efefef" d="M 101.5,21.5 C 100.432,22.4345 99.099,22.7678 97.5,22.5C 97.6495,23.552 97.4828,24.552 97,25.5C 94.2728,26.759 92.4394,28.759 91.5,31.5C 90.448,31.3505 89.448,31.5172 88.5,32C 86.5254,35.8144 83.5254,38.3144 79.5,39.5C 74.3629,41.4108 70.3629,44.7442 67.5,49.5C 65.5,52.8333 62.8333,55.5 59.5,57.5C 56.8333,58.8333 54.8333,60.8333 53.5,63.5C 48.7306,68.2676 44.7306,73.601 41.5,79.5C 37.4141,81.6587 34.7474,84.992 33.5,89.5C 32.1667,89.5 31.5,90.1667 31.5,91.5C 30.5,91.5 29.5,91.5 28.5,91.5C 26.8799,94.8067 25.2133,98.14 23.5,101.5C 22.5,101.5 21.5,101.5 20.5,101.5C 20.4576,105.009 21.1242,108.342 22.5,111.5C 25.4056,111.957 28.0722,112.957 30.5,114.5C 30.8333,114.5 31.1667,114.5 31.5,114.5C 33.2941,116.797 35.2941,118.963 37.5,121C 41.6249,123.29 45.6249,125.79 49.5,128.5C 51.5178,129.859 53.5178,131.193 55.5,132.5C 56.6253,134.129 57.9586,135.629 59.5,137C 64.5421,141.583 70.2088,145.25 76.5,148C 77.7101,149.039 78.7101,150.206 79.5,151.5C 79.7214,152.735 80.3881,153.735 81.5,154.5C 85.3136,156.744 89.3136,158.411 93.5,159.5C 97.1497,161.472 100.816,163.472 104.5,165.5C 105.452,167.045 105.785,168.712 105.5,170.5C 103.665,171.122 102.498,172.456 102,174.5C 100.387,178.841 98.8868,183.174 97.5,187.5C 96.8826,187.611 96.3826,187.944 96,188.5C 95.3333,193.833 95.3333,199.167 96,204.5C 97.1256,208.749 97.7923,213.082 98,217.5C 99.5981,221.126 101.431,224.459 103.5,227.5C 105.895,230.569 107.895,233.903 109.5,237.5C 112.784,242.623 116.284,247.623 120,252.5C 123.429,256.439 127.263,259.772 131.5,262.5C 135.559,266.565 139.893,270.232 144.5,273.5C 145.579,275.543 147.246,276.876 149.5,277.5C 150.911,279.914 152.911,281.581 155.5,282.5C 156.234,283.708 156.567,285.041 156.5,286.5C 159.172,286.948 161.172,288.281 162.5,290.5C 159.813,290.664 157.146,290.497 154.5,290C 132.568,274.402 114.402,255.235 100,232.5C 89.9884,212.555 89.1551,192.222 97.5,171.5C 97.3333,170.5 97.1667,169.5 97,168.5C 93.5788,166.539 90.0788,164.706 86.5,163C 67.8518,150.123 49.5185,136.789 31.5,123C 27.3333,119.5 23.5,115.667 20,111.5C 19.1215,106.713 19.4548,102.047 21,97.5C 31.6509,83.6831 42.4843,70.0165 53.5,56.5C 66.7273,44.4361 80.3939,32.9361 94.5,22C 96.8098,21.5034 99.1432,21.3367 101.5,21.5 Z"/></g>
<g><path style="opacity:0.706" fill="#6a6a6a" d="M 320.5,89.5 C 328.302,91.3933 333.636,96.0599 336.5,103.5C 332.888,100.022 328.888,97.0225 324.5,94.5C 323.143,92.8144 321.81,91.1477 320.5,89.5 Z"/></g>
<g><path style="opacity:0.133" fill="#3c3c3c" d="M 387.5,91.5 C 386.773,96.2421 384.107,99.5755 379.5,101.5C 378.676,104.663 376.676,106.33 373.5,106.5C 374.719,103.276 376.719,100.61 379.5,98.5C 380.552,98.6495 381.552,98.4828 382.5,98C 384.421,95.9269 386.088,93.7602 387.5,91.5 Z"/></g>
<g><path style="opacity:0.482" fill="#575757" d="M 419.5,97.5 C 419.5,98.5 419.5,99.5 419.5,100.5C 417.5,101.167 415.5,101.833 413.5,102.5C 413.96,99.0432 415.96,97.3765 419.5,97.5 Z"/></g>
<g><path style="opacity:0.014" fill="#ededed" d="M 293.5,83.5 C 293.167,84.1667 292.833,84.8333 292.5,85.5C 289.626,86.0974 287.292,87.4307 285.5,89.5C 284.833,89.5 284.167,89.5 283.5,89.5C 275.273,93.3738 267.94,98.5404 261.5,105C 257.206,105.472 254.206,107.638 252.5,111.5C 250.169,111.498 248.169,112.331 246.5,114C 242.935,117.725 239.602,121.558 236.5,125.5C 235.5,127.167 234.167,128.5 232.5,129.5C 230.411,131.254 228.078,132.587 225.5,133.5C 225.923,136.243 224.756,137.576 222,137.5C 218.744,136.606 215.911,135.272 213.5,133.5C 218.419,133.924 223.086,133.09 227.5,131C 229.723,127.506 232.389,124.34 235.5,121.5C 244.5,113.667 253.5,105.833 262.5,98C 272.143,91.5094 282.477,86.676 293.5,83.5 Z"/></g>
<g><path style="opacity:0.38" fill="#5f5f5f" d="M 442.5,100.5 C 441.522,103.478 439.522,105.478 436.5,106.5C 436.5,105.167 436.5,103.833 436.5,102.5C 438.5,101.833 440.5,101.167 442.5,100.5 Z"/></g>
<g><path style="opacity:0.776" fill="#515151" d="M 351.5,89.5 C 348.767,95.3625 346.267,101.363 344,107.5C 342.031,110.124 340.198,110.124 338.5,107.5C 339.833,107.5 341.167,107.5 342.5,107.5C 343.362,101.77 345.362,96.4369 348.5,91.5C 349.265,90.3881 350.265,89.7214 351.5,89.5 Z"/></g>
<g><path style="opacity:1" fill="#727272" d="M 321.5,108.5 C 313.603,106.839 305.603,106.173 297.5,106.5C 298.263,105.732 299.263,105.232 300.5,105C 308.196,103.608 315.196,104.774 321.5,108.5 Z"/></g>
<g><path style="opacity:1" fill="#cccccc" d="M 325.5,112.5 C 325.833,112.5 326.167,112.5 326.5,112.5C 329.175,117.505 331.842,122.505 334.5,127.5C 334.701,144.188 335.701,160.522 337.5,176.5C 337.511,178.017 338.177,179.184 339.5,180C 341.885,180.556 344.218,180.39 346.5,179.5C 345.159,181.12 343.326,182.12 341,182.5C 338.459,187.811 336.292,193.311 334.5,199C 331.221,203.046 328.055,207.213 325,211.5C 317.355,217.488 310.188,223.988 303.5,231C 300.023,232.658 296.357,233.825 292.5,234.5C 294.644,223.57 298.478,213.237 304,203.5C 304.114,198.236 305.281,193.236 307.5,188.5C 308.662,183.533 308.829,178.533 308,173.5C 303.43,169.889 303.43,166.222 308,162.5C 308.667,161.167 308.667,159.833 308,158.5C 291.821,156.471 287.654,148.471 295.5,134.5C 295.471,132.971 294.804,131.804 293.5,131C 286.887,127.013 279.72,124.179 272,122.5C 268.387,123.421 265.22,125.255 262.5,128C 261.207,128.49 259.873,128.657 258.5,128.5C 265.052,123.12 272.052,118.453 279.5,114.5C 288.089,111.915 296.756,109.582 305.5,107.5C 312.427,108.317 319.093,109.984 325.5,112.5 Z"/></g>
<g><path style="opacity:0.524" fill="#6f6f6f" d="M 363.5,103.5 C 361.919,105.142 361.253,107.142 361.5,109.5C 360.596,110.209 360.263,111.209 360.5,112.5C 358.631,110.365 357.964,107.698 358.5,104.5C 360.216,104.371 361.883,104.038 363.5,103.5 Z"/></g>
<g><path style="opacity:0.914" fill="#6d6d6d" d="M 154.5,83.5 C 158.836,89.865 162.836,96.5317 166.5,103.5C 168.928,111.674 167.261,118.674 161.5,124.5C 160.5,125.167 159.5,125.833 158.5,126.5C 160.993,122.184 163.493,117.851 166,113.5C 166.167,112.333 166.333,111.167 166.5,110C 164.833,104.652 162.666,99.4854 160,94.5C 155.671,92.0232 153.838,88.3566 154.5,83.5 Z"/></g>
<g><path style="opacity:0.38" fill="#a1a1a1" d="M 23.5,101.5 C 23.1924,103.924 23.5258,106.257 24.5,108.5C 26.8545,110.188 28.8545,112.188 30.5,114.5C 28.0722,112.957 25.4056,111.957 22.5,111.5C 21.1242,108.342 20.4576,105.009 20.5,101.5C 21.5,101.5 22.5,101.5 23.5,101.5 Z"/></g>
<g><path style="opacity:1" fill="#a2a2a2" d="M 297.5,106.5 C 305.603,106.173 313.603,106.839 321.5,108.5C 324.179,108.525 325.512,109.858 325.5,112.5C 319.093,109.984 312.427,108.317 305.5,107.5C 296.756,109.582 288.089,111.915 279.5,114.5C 284.781,110.506 290.781,107.839 297.5,106.5 Z"/></g>
<g><path style="opacity:0.914" fill="#464646" d="M 482.5,99.5 C 483.5,100.167 484.5,100.833 485.5,101.5C 487.276,107.806 484.943,111.806 478.5,113.5C 479.791,111.381 481.625,109.715 484,108.5C 484.788,105.228 484.288,102.228 482.5,99.5 Z"/></g>
<g><path style="opacity:0.761" fill="#a7a7a7" d="M 485.5,101.5 C 486.748,102.334 487.415,103.667 487.5,105.5C 487.333,106.833 487.167,108.167 487,109.5C 480.466,115.554 473.3,120.554 465.5,124.5C 465.833,123.833 466.167,123.167 466.5,122.5C 470.518,119.476 474.518,116.476 478.5,113.5C 484.943,111.806 487.276,107.806 485.5,101.5 Z"/></g>
<g><path style="opacity:0.118" fill="#c5c5c5" d="M 361.5,109.5 C 363.282,110.72 365.282,111.386 367.5,111.5C 367.209,112.649 366.376,113.316 365,113.5C 363.467,113.227 361.967,112.894 360.5,112.5C 360.263,111.209 360.596,110.209 361.5,109.5 Z"/></g>
<g><path style="opacity:0.471" fill="#5b5b5b" d="M 403.5,112.5 C 403.649,113.552 403.483,114.552 403,115.5C 400.858,117.827 398.358,119.493 395.5,120.5C 396.802,116.531 399.469,113.865 403.5,112.5 Z"/></g>
<g><path style="opacity:0.247" fill="#888888" d="M 425.5,115.5 C 424.833,117.5 423.5,118.833 421.5,119.5C 421.488,116.858 422.821,115.525 425.5,115.5 Z"/></g>
<g><path style="opacity:0.929" fill="#5d5d5d" d="M 31.5,114.5 C 33.1789,114.892 34.8455,115.392 36.5,116C 41.292,119.722 45.6254,123.889 49.5,128.5C 45.6249,125.79 41.6249,123.29 37.5,121C 35.2941,118.963 33.2941,116.797 31.5,114.5 Z"/></g>
<g><path style="opacity:0.476" fill="#333333" d="M 391.5,108.5 C 390.281,111.724 388.281,114.39 385.5,116.5C 382.288,116.712 380.288,118.379 379.5,121.5C 379.167,121.5 378.833,121.5 378.5,121.5C 378.238,120.022 378.571,118.689 379.5,117.5C 382.677,114.822 385.677,111.988 388.5,109C 389.448,108.517 390.448,108.351 391.5,108.5 Z"/></g>
<g><path style="opacity:0.667" fill="#747474" d="M 447.5,109.5 C 447.719,110.675 447.386,111.675 446.5,112.5C 442.162,116.04 438.162,119.873 434.5,124C 432.861,125.519 431.194,125.686 429.5,124.5C 429.703,122.956 430.37,121.622 431.5,120.5C 437.167,117.141 442.5,113.474 447.5,109.5 Z"/></g>
<g><path style="opacity:0.078" fill="#7d7d7d" d="M 385.5,116.5 C 385.04,119.957 383.04,121.623 379.5,121.5C 380.288,118.379 382.288,116.712 385.5,116.5 Z"/></g>
<g><path style="opacity:1" fill="#6c6c6c" d="M 326.5,112.5 C 327.794,113.29 328.961,114.29 330,115.5C 331.731,119.295 333.731,122.962 336,126.5C 336.497,129.146 336.664,131.813 336.5,134.5C 335.833,132.167 335.167,129.833 334.5,127.5C 331.842,122.505 329.175,117.505 326.5,112.5 Z"/></g>
<g><path style="opacity:0.235" fill="#a7a7a7" d="M 252.5,111.5 C 248.029,117.314 242.696,121.981 236.5,125.5C 239.602,121.558 242.935,117.725 246.5,114C 248.169,112.331 250.169,111.498 252.5,111.5 Z"/></g>
<g><path style="opacity:1" fill="#fdfdfd" d="M 346.5,179.5 C 348.587,178.415 349.92,176.749 350.5,174.5C 351.166,170.979 351.833,167.313 352.5,163.5C 363.757,169.054 372.924,177.054 380,187.5C 387.028,201.381 389.361,216.048 387,231.5C 385.179,241.332 379.345,245.832 369.5,245C 367.833,243.833 366.167,242.667 364.5,241.5C 363.833,236.349 363.166,231.349 362.5,226.5C 357.475,220.994 352.642,221.327 348,227.5C 347.506,229.134 347.34,230.801 347.5,232.5C 346.89,233.391 346.557,234.391 346.5,235.5C 344.871,236.625 343.371,237.959 342,239.5C 340.681,244.311 338.514,248.645 335.5,252.5C 335.5,252.833 335.5,253.167 335.5,253.5C 331.873,255.794 328.539,258.46 325.5,261.5C 325.389,262.117 325.056,262.617 324.5,263C 321.149,263.057 318.149,263.891 315.5,265.5C 289.312,271.074 262.978,271.907 236.5,268C 231.991,266.852 227.658,265.186 223.5,263C 221.19,262.503 218.857,262.337 216.5,262.5C 210.591,259.34 204.591,256.34 198.5,253.5C 197.761,253.631 197.094,253.464 196.5,253C 191.994,247.994 187.327,243.161 182.5,238.5C 182.167,237.833 181.833,237.167 181.5,236.5C 179.156,232.64 176.989,228.64 175,224.5C 174.329,223.748 173.496,223.414 172.5,223.5C 169.314,222.03 166.314,222.53 163.5,225C 162.189,227.274 162.189,229.44 163.5,231.5C 165.139,234.772 167.139,237.772 169.5,240.5C 170.149,245.786 172.816,249.786 177.5,252.5C 177.833,253.167 178.167,253.833 178.5,254.5C 180.388,257.899 182.888,260.899 186,263.5C 186.483,264.448 186.649,265.448 186.5,266.5C 190.029,269.84 194.029,272.674 198.5,275C 200.345,276.128 202.345,276.628 204.5,276.5C 205.833,276.5 207.167,276.5 208.5,276.5C 208.842,277.338 209.508,277.672 210.5,277.5C 210.5,278.167 210.833,278.5 211.5,278.5C 211.611,279.117 211.944,279.617 212.5,280C 218.069,281.433 223.736,282.766 229.5,284C 239.5,284.333 249.5,284.667 259.5,285C 265.761,291.93 271.261,299.43 276,307.5C 277.981,316.873 277.815,326.206 275.5,335.5C 265.145,335.168 254.812,335.501 244.5,336.5C 241.277,337.186 238.277,338.186 235.5,339.5C 229.147,338.901 223.147,340.068 217.5,343C 209.539,344.824 201.539,346.324 193.5,347.5C 192.894,328.826 192.061,310.16 191,291.5C 189.955,290.627 189.122,289.627 188.5,288.5C 185.781,285.064 182.448,282.23 178.5,280C 175.898,278.86 173.231,278.027 170.5,277.5C 169.609,276.89 168.609,276.557 167.5,276.5C 162.701,270.032 156.701,265.032 149.5,261.5C 147.167,259.833 145.167,257.833 143.5,255.5C 142.51,251.269 140.01,248.269 136,246.5C 134.464,242.069 131.964,238.403 128.5,235.5C 126.177,232.865 124.344,229.865 123,226.5C 122.506,224.866 122.34,223.199 122.5,221.5C 119.956,214.505 118.956,207.172 119.5,199.5C 119.833,194.167 120.167,188.833 120.5,183.5C 123.002,180.666 124.335,177.333 124.5,173.5C 125.895,170.858 127.395,168.191 129,165.5C 131.664,164.002 133.83,162.002 135.5,159.5C 138.114,159.723 139.781,158.556 140.5,156C 143.345,155.462 146.012,154.462 148.5,153C 150.819,150.526 153.486,148.693 156.5,147.5C 160.048,147.905 163.381,147.405 166.5,146C 175.5,145.333 184.5,145.333 193.5,146C 198.578,146.906 203.578,148.072 208.5,149.5C 206.456,151.219 204.456,152.886 202.5,154.5C 199.474,156.538 196.474,158.538 193.5,160.5C 193.167,160.5 192.833,160.5 192.5,160.5C 188.154,160.666 183.821,160.499 179.5,160C 177.115,156.603 173.949,154.437 170,153.5C 164.758,153.647 162.591,156.314 163.5,161.5C 165.268,168.436 169.602,172.936 176.5,175C 186.073,176.419 195.073,174.752 203.5,170C 204.71,168.961 205.71,167.794 206.5,166.5C 207.167,166.5 207.833,166.5 208.5,166.5C 212.81,164.505 217.143,162.505 221.5,160.5C 222.174,158.805 222.841,157.138 223.5,155.5C 226.226,155.736 228.559,154.903 230.5,153C 234.433,148.051 238.766,143.551 243.5,139.5C 244.625,137.871 245.959,136.371 247.5,135C 251.051,132.611 254.717,130.445 258.5,128.5C 259.873,128.657 261.207,128.49 262.5,128C 265.22,125.255 268.387,123.421 272,122.5C 279.72,124.179 286.887,127.013 293.5,131C 294.804,131.804 295.471,132.971 295.5,134.5C 287.654,148.471 291.821,156.471 308,158.5C 308.667,159.833 308.667,161.167 308,162.5C 303.43,166.222 303.43,169.889 308,173.5C 308.829,178.533 308.662,183.533 307.5,188.5C 305.281,193.236 304.114,198.236 304,203.5C 298.478,213.237 294.644,223.57 292.5,234.5C 296.357,233.825 300.023,232.658 303.5,231C 310.188,223.988 317.355,217.488 325,211.5C 328.055,207.213 331.221,203.046 334.5,199C 336.292,193.311 338.459,187.811 341,182.5C 343.326,182.12 345.159,181.12 346.5,179.5 Z"/></g>
<g><path style="opacity:0.933" fill="#5e5e5e" d="M 351.5,128.5 C 348.798,125.73 347.965,126.397 349,130.5C 349.154,133.525 350.654,135.191 353.5,135.5C 353.5,134.167 353.5,132.833 353.5,131.5C 354.451,132.919 354.784,134.585 354.5,136.5C 351.956,136.896 349.789,136.229 348,134.5C 347.704,131.294 347.204,128.128 346.5,125C 346.85,123.743 347.517,123.409 348.5,124C 350.141,125.129 351.141,126.629 351.5,128.5 Z"/></g>
<g><path style="opacity:0.937" fill="#5a5a5a" d="M 466.5,122.5 C 466.167,123.167 465.833,123.833 465.5,124.5C 462.5,126.5 459.5,128.5 456.5,130.5C 458.963,126.7 462.296,124.033 466.5,122.5 Z"/></g>
<g><path style="opacity:0.894" fill="#a1a1a1" d="M 161.5,124.5 C 161.297,126.044 160.63,127.378 159.5,128.5C 160.5,128.833 161.5,129.167 162.5,129.5C 172.729,126.684 182.729,127.018 192.5,130.5C 180.814,130.832 169.148,130.499 157.5,129.5C 158.127,128.583 158.461,127.583 158.5,126.5C 159.5,125.833 160.5,125.167 161.5,124.5 Z"/></g>
<g><path style="opacity:0.643" fill="#afafaf" d="M 351.5,128.5 C 352.401,129.29 353.068,130.29 353.5,131.5C 353.5,132.833 353.5,134.167 353.5,135.5C 350.654,135.191 349.154,133.525 349,130.5C 347.965,126.397 348.798,125.73 351.5,128.5 Z"/></g>
<g><path style="opacity:0.816" fill="#5c5c5c" d="M 427.5,127.5 C 427.5,128.5 427.5,129.5 427.5,130.5C 425.5,130.833 423.5,131.167 421.5,131.5C 422.446,128.687 424.446,127.354 427.5,127.5 Z"/></g>
<g><path style="opacity:0.89" fill="#a3a3a3" d="M 465.5,124.5 C 461.087,129.745 455.754,133.745 449.5,136.5C 451.808,134.529 454.142,132.529 456.5,130.5C 459.5,128.5 462.5,126.5 465.5,124.5 Z"/></g>
<g><path style="opacity:0.327" fill="#454545" d="M 135.5,130.5 C 136.234,131.708 136.567,133.041 136.5,134.5C 134.723,134.786 133.056,135.453 131.5,136.5C 129.347,136.439 128.014,135.439 127.5,133.5C 130.776,133.856 133.443,132.856 135.5,130.5 Z"/></g>
<g><path style="opacity:1" fill="#313131" d="M 158.5,126.5 C 158.461,127.583 158.127,128.583 157.5,129.5C 169.148,130.499 180.814,130.832 192.5,130.5C 198.413,132.81 204.413,134.81 210.5,136.5C 202.246,136.061 194.246,134.561 186.5,132C 176.157,131.485 165.823,131.651 155.5,132.5C 155.025,129.687 156.025,127.687 158.5,126.5 Z"/></g>
<g><path style="opacity:0.369" fill="#8a8a8a" d="M 232.5,129.5 C 231.89,130.391 231.557,131.391 231.5,132.5C 229.996,134.836 227.996,136.669 225.5,138C 220.47,137.995 215.47,137.495 210.5,136.5C 204.413,134.81 198.413,132.81 192.5,130.5C 196.135,131.114 199.802,131.448 203.5,131.5C 204.167,131.5 204.833,131.5 205.5,131.5C 207.279,133.344 209.612,134.01 212.5,133.5C 212.833,133.5 213.167,133.5 213.5,133.5C 215.911,135.272 218.744,136.606 222,137.5C 224.756,137.576 225.923,136.243 225.5,133.5C 228.078,132.587 230.411,131.254 232.5,129.5 Z"/></g>
<g><path style="opacity:0.195" fill="#d8d8d8" d="M 205.5,131.5 C 207.527,131.338 209.527,131.505 211.5,132C 212.056,132.383 212.389,132.883 212.5,133.5C 209.612,134.01 207.279,133.344 205.5,131.5 Z"/></g>
<g><path style="opacity:0.722" fill="#616161" d="M 392.5,123.5 C 390.638,127.051 388.305,130.384 385.5,133.5C 379.319,138.224 375.319,136.89 373.5,129.5C 375.464,130.782 377.464,132.115 379.5,133.5C 382.337,132.491 383.67,130.491 383.5,127.5C 386.714,126.612 389.714,125.279 392.5,123.5 Z"/></g>
<g><path style="opacity:0.894" fill="#5b5b5b" d="M 402.5,132.5 C 400.295,134.363 398.961,136.697 398.5,139.5C 397.778,140.551 396.778,141.218 395.5,141.5C 394.427,140.749 394.26,139.749 395,138.5C 397.106,135.882 399.606,133.882 402.5,132.5 Z"/></g>
<g><path style="opacity:0.335" fill="#bcbcbc" d="M 406.5,131.5 C 405.135,135.531 402.469,138.198 398.5,139.5C 398.961,136.697 400.295,134.363 402.5,132.5C 403.708,131.766 405.041,131.433 406.5,131.5 Z"/></g>
<g><path style="opacity:1" fill="#5d5d5d" d="M 279.5,114.5 C 272.052,118.453 265.052,123.12 258.5,128.5C 254.717,130.445 251.051,132.611 247.5,135C 245.959,136.371 244.625,137.871 243.5,139.5C 238.064,143.09 232.73,146.923 227.5,151C 225.959,152.371 224.625,153.871 223.5,155.5C 222.391,155.557 221.391,155.89 220.5,156.5C 228.929,148.917 237.596,141.417 246.5,134C 252.236,129.936 258.236,126.27 264.5,123C 265.337,121.989 265.67,120.822 265.5,119.5C 270.355,118.408 275.022,116.741 279.5,114.5 Z"/></g>
<g><path style="opacity:0.933" fill="#6b6b6b" d="M 449.5,136.5 C 448.738,138.262 447.404,139.262 445.5,139.5C 444.609,140.11 443.609,140.443 442.5,140.5C 444.121,138.058 446.454,136.725 449.5,136.5 Z"/></g>
<g><path style="opacity:1" fill="#393939" d="M 186.5,142.5 C 195.263,141.633 203.597,142.966 211.5,146.5C 211.923,148.781 211.256,150.448 209.5,151.5C 209.5,150.167 209.5,148.833 209.5,147.5C 202.08,144.944 194.414,143.944 186.5,144.5C 186.5,143.833 186.5,143.167 186.5,142.5 Z"/></g>
<g><path style="opacity:0.569" fill="#c3c3c3" d="M 445.5,139.5 C 445.5,140.833 445.5,142.167 445.5,143.5C 442.031,142.887 440.031,144.221 439.5,147.5C 435.846,147.5 432.513,148.5 429.5,150.5C 433.833,147.167 438.167,143.833 442.5,140.5C 443.609,140.443 444.609,140.11 445.5,139.5 Z"/></g>
<g><path style="opacity:0.996" fill="#313131" d="M 442.5,140.5 C 438.167,143.833 433.833,147.167 429.5,150.5C 427.833,151.167 426.167,151.833 424.5,152.5C 427.785,149.882 430.785,146.882 433.5,143.5C 436.573,142.65 439.573,141.65 442.5,140.5 Z"/></g>
<g><path style="opacity:1" fill="#c2c2c2" d="M 186.5,144.5 C 194.414,143.944 202.08,144.944 209.5,147.5C 209.5,148.833 209.5,150.167 209.5,151.5C 207.372,152.957 205.038,153.957 202.5,154.5C 204.456,152.886 206.456,151.219 208.5,149.5C 203.578,148.072 198.578,146.906 193.5,146C 184.5,145.333 175.5,145.333 166.5,146C 163.381,147.405 160.048,147.905 156.5,147.5C 158.811,145.932 161.478,145.098 164.5,145C 171.826,144.5 179.159,144.334 186.5,144.5 Z"/></g>
<g><path style="opacity:1" fill="#707070" d="M 186.5,142.5 C 186.5,143.167 186.5,143.833 186.5,144.5C 179.159,144.334 171.826,144.5 164.5,145C 161.478,145.098 158.811,145.932 156.5,147.5C 154.435,147.517 152.435,147.85 150.5,148.5C 151.981,146.753 153.981,145.586 156.5,145C 166.429,143.307 176.429,142.474 186.5,142.5 Z"/></g>
<g><path style="opacity:0.671" fill="#979797" d="M 407.5,143.5 C 407.737,144.791 407.404,145.791 406.5,146.5C 404.236,147.219 401.903,147.552 399.5,147.5C 401.623,145.203 404.29,143.87 407.5,143.5 Z"/></g>
<g><path style="opacity:1" fill="#cfcfcf" d="M 268.5,145.5 C 278.49,143.658 282.656,147.658 281,157.5C 277.743,160.428 273.909,161.262 269.5,160C 264.62,155.369 264.286,150.536 268.5,145.5 Z"/></g>
<g><path style="opacity:0.255" fill="#565656" d="M 395.5,145.5 C 396.833,146.167 398.167,146.833 399.5,147.5C 401.903,147.552 404.236,147.219 406.5,146.5C 405.488,148.876 403.655,149.876 401,149.5C 397.707,149.954 395.874,148.62 395.5,145.5 Z"/></g>
<g><path style="opacity:1" fill="#cccccc" d="M 243.5,139.5 C 238.766,143.551 234.433,148.051 230.5,153C 228.559,154.903 226.226,155.736 223.5,155.5C 224.625,153.871 225.959,152.371 227.5,151C 232.73,146.923 238.064,143.09 243.5,139.5 Z"/></g>
<g><path style="opacity:1" fill="#4f4f4f" d="M 336.5,135.5 C 337.117,135.611 337.617,135.944 338,136.5C 338.5,149.829 338.667,163.163 338.5,176.5C 338.167,176.5 337.833,176.5 337.5,176.5C 337.671,162.816 337.338,149.149 336.5,135.5 Z"/></g>
<g><path style="opacity:0.929" fill="#595959" d="M 55.5,132.5 C 66.6052,138.041 76.6052,145.041 85.5,153.5C 83.6854,152.37 81.6854,151.704 79.5,151.5C 78.7101,150.206 77.7101,149.039 76.5,148C 70.2088,145.25 64.5421,141.583 59.5,137C 57.9586,135.629 56.6253,134.129 55.5,132.5 Z"/></g>
<g><path style="opacity:1" fill="#c9c9c9" d="M 156.5,147.5 C 153.486,148.693 150.819,150.526 148.5,153C 146.012,154.462 143.345,155.462 140.5,156C 139.781,158.556 138.114,159.723 135.5,159.5C 139.563,155.431 143.896,151.764 148.5,148.5C 149.167,148.5 149.833,148.5 150.5,148.5C 152.435,147.85 154.435,147.517 156.5,147.5 Z"/></g>
<g><path style="opacity:1" fill="#c9c9c9" d="M 368.5,157.5 C 374.451,161.45 380.118,165.783 385.5,170.5C 386.512,171.872 387.512,173.205 388.5,174.5C 389.044,176.58 389.878,178.58 391,180.5C 391.708,181.381 392.542,182.047 393.5,182.5C 394.878,183.545 395.878,184.878 396.5,186.5C 398.326,191.484 400.659,196.151 403.5,200.5C 405.41,203.452 406.41,206.786 406.5,210.5C 406.5,211.833 406.5,213.167 406.5,214.5C 407.293,229.725 405.959,244.725 402.5,259.5C 400.013,264.327 397.346,268.993 394.5,273.5C 390.743,279.611 385.409,283.278 378.5,284.5C 362.07,287.9 346.07,286.9 330.5,281.5C 327.741,281.067 326.408,279.4 326.5,276.5C 330.836,275.609 334.169,273.275 336.5,269.5C 341.56,266.774 345.226,262.774 347.5,257.5C 347.833,257.5 348.167,257.5 348.5,257.5C 350.797,255.706 352.963,253.706 355,251.5C 356.228,247.375 358.228,243.709 361,240.5C 362.122,235.898 362.622,231.232 362.5,226.5C 363.166,231.349 363.833,236.349 364.5,241.5C 366.167,242.667 367.833,243.833 369.5,245C 379.345,245.832 385.179,241.332 387,231.5C 389.361,216.048 387.028,201.381 380,187.5C 372.924,177.054 363.757,169.054 352.5,163.5C 351.833,167.313 351.166,170.979 350.5,174.5C 350.5,170.5 350.5,166.5 350.5,162.5C 351.482,159.038 351.815,155.371 351.5,151.5C 355.776,151.765 359.443,153.431 362.5,156.5C 364.396,157.466 366.396,157.799 368.5,157.5 Z"/></g>
<g><path style="opacity:0.596" fill="#b1b1b1" d="M 429.5,150.5 C 429.5,152.167 429.5,153.833 429.5,155.5C 427.143,155.337 424.81,155.503 422.5,156C 417.024,159.646 411.357,162.812 405.5,165.5C 405.4,168.108 406.067,170.442 407.5,172.5C 404.167,170.841 402.5,168.175 402.5,164.5C 410.558,161.763 417.891,157.763 424.5,152.5C 426.167,151.833 427.833,151.167 429.5,150.5 Z"/></g>
<g><path style="opacity:0.537" fill="#c2c2c2" d="M 79.5,151.5 C 81.6854,151.704 83.6854,152.37 85.5,153.5C 88.0883,155.158 90.755,156.825 93.5,158.5C 93.5,158.833 93.5,159.167 93.5,159.5C 89.3136,158.411 85.3136,156.744 81.5,154.5C 80.3881,153.735 79.7214,152.735 79.5,151.5 Z"/></g>
<g><path style="opacity:1" fill="#757575" d="M 202.5,154.5 C 200.573,158.092 197.573,160.092 193.5,160.5C 196.474,158.538 199.474,156.538 202.5,154.5 Z"/></g>
<g><path style="opacity:1" fill="#999999" d="M 334.5,127.5 C 335.167,129.833 335.833,132.167 336.5,134.5C 336.5,134.833 336.5,135.167 336.5,135.5C 337.338,149.149 337.671,162.816 337.5,176.5C 335.701,160.522 334.701,144.188 334.5,127.5 Z"/></g>
<g><path style="opacity:1" fill="#6a6a6a" d="M 192.5,160.5 C 185.16,163.663 178.827,162.163 173.5,156C 168.293,154.391 165.293,156.224 164.5,161.5C 164.167,161.5 163.833,161.5 163.5,161.5C 162.591,156.314 164.758,153.647 170,153.5C 173.949,154.437 177.115,156.603 179.5,160C 183.821,160.499 188.154,160.666 192.5,160.5 Z"/></g>
<g><path style="opacity:1" fill="#c5c5c5" d="M 223.5,155.5 C 222.841,157.138 222.174,158.805 221.5,160.5C 217.143,162.505 212.81,164.505 208.5,166.5C 212.54,163.156 216.54,159.823 220.5,156.5C 221.391,155.89 222.391,155.557 223.5,155.5 Z"/></g>
<g><path style="opacity:0.914" fill="#646464" d="M 93.5,159.5 C 93.5,159.167 93.5,158.833 93.5,158.5C 97.9616,160.957 102.628,162.957 107.5,164.5C 107.741,166.898 107.074,168.898 105.5,170.5C 105.785,168.712 105.452,167.045 104.5,165.5C 100.816,163.472 97.1497,161.472 93.5,159.5 Z"/></g>
<g><path style="opacity:1" fill="#2a2a2a" d="M 385.5,170.5 C 380.118,165.783 374.451,161.45 368.5,157.5C 363.166,153.493 357.166,150.827 350.5,149.5C 350.5,153.833 350.5,158.167 350.5,162.5C 350.167,162.5 349.833,162.5 349.5,162.5C 346.339,144.557 351.339,141.724 364.5,154C 366.952,154.29 369.285,154.956 371.5,156C 375.151,159.34 378.985,162.506 383,165.5C 384.094,167.078 384.928,168.745 385.5,170.5 Z"/></g>
<g><path style="opacity:1" fill="#979797" d="M 368.5,157.5 C 366.396,157.799 364.396,157.466 362.5,156.5C 359.443,153.431 355.776,151.765 351.5,151.5C 351.815,155.371 351.482,159.038 350.5,162.5C 350.5,158.167 350.5,153.833 350.5,149.5C 357.166,150.827 363.166,153.493 368.5,157.5 Z"/></g>
<g><path style="opacity:1" fill="#858585" d="M 148.5,148.5 C 143.896,151.764 139.563,155.431 135.5,159.5C 133.83,162.002 131.664,164.002 129,165.5C 127.395,168.191 125.895,170.858 124.5,173.5C 123.833,173.833 123.167,174.167 122.5,174.5C 124.412,171.005 126.079,167.338 127.5,163.5C 132.98,159.188 138.313,154.688 143.5,150C 145.154,149.392 146.821,148.892 148.5,148.5 Z"/></g>
<g><path style="opacity:1" fill="#d3d3d3" d="M 271.5,168.5 C 279.017,167.375 282.017,170.375 280.5,177.5C 270.087,182.421 267.087,179.421 271.5,168.5 Z"/></g>
<g><path style="opacity:1" fill="#a2a2a2" d="M 163.5,161.5 C 163.833,161.5 164.167,161.5 164.5,161.5C 168.102,166.6 172.769,170.433 178.5,173C 188.524,173.66 197.857,171.493 206.5,166.5C 205.71,167.794 204.71,168.961 203.5,170C 195.073,174.752 186.073,176.419 176.5,175C 169.602,172.936 165.268,168.436 163.5,161.5 Z"/></g>
<g><path style="opacity:1" fill="#929292" d="M 349.5,162.5 C 349.833,162.5 350.167,162.5 350.5,162.5C 350.5,166.5 350.5,170.5 350.5,174.5C 349.92,176.749 348.587,178.415 346.5,179.5C 344.218,180.39 341.885,180.556 339.5,180C 338.177,179.184 337.511,178.017 337.5,176.5C 337.833,176.5 338.167,176.5 338.5,176.5C 340.228,177.379 342.061,178.046 344,178.5C 345.711,178.561 347.044,177.894 348,176.5C 349.379,171.964 349.879,167.297 349.5,162.5 Z"/></g>
<g><path style="opacity:1" fill="#626262" d="M 388.5,174.5 C 391.833,176.159 393.5,178.825 393.5,182.5C 392.542,182.047 391.708,181.381 391,180.5C 389.878,178.58 389.044,176.58 388.5,174.5 Z"/></g>
<g><path style="opacity:0.988" fill="#434343" d="M 407.5,172.5 C 408.482,173.141 409.482,173.807 410.5,174.5C 412.256,179.093 414.923,183.093 418.5,186.5C 419.429,187.689 419.762,189.022 419.5,190.5C 417.309,186.794 414.476,183.461 411,180.5C 410.467,177.495 409.3,174.828 407.5,172.5 Z"/></g>
<g><path style="opacity:0.729" fill="#4c4c4c" d="M 105.5,170.5 C 103.648,176.589 101.481,182.589 99,188.5C 98.5005,194.491 98.3338,200.491 98.5,206.5C 97.5098,200.355 97.1765,194.022 97.5,187.5C 98.8868,183.174 100.387,178.841 102,174.5C 102.498,172.456 103.665,171.122 105.5,170.5 Z"/></g>
<g><path style="opacity:1" fill="#555555" d="M 396.5,186.5 C 400.353,190.382 402.686,195.049 403.5,200.5C 400.659,196.151 398.326,191.484 396.5,186.5 Z"/></g>
<g><path style="opacity:1" fill="#323232" d="M 121.5,174.5 C 119.763,179.045 118.43,183.712 117.5,188.5C 116.508,195.648 116.175,202.981 116.5,210.5C 114.944,199.192 115.444,187.859 118,176.5C 119.113,175.695 120.279,175.028 121.5,174.5 Z"/></g>
<g><path style="opacity:0.243" fill="#aaaaaa" d="M 97.5,187.5 C 97.1765,194.022 97.5098,200.355 98.5,206.5C 99.07,211.785 100.403,216.785 102.5,221.5C 103.15,223.435 103.483,225.435 103.5,227.5C 101.431,224.459 99.5981,221.126 98,217.5C 97.7923,213.082 97.1256,208.749 96,204.5C 95.3333,199.167 95.3333,193.833 96,188.5C 96.3826,187.944 96.8826,187.611 97.5,187.5 Z"/></g>
<g><path style="opacity:1" fill="#8d8d8d" d="M 117.5,188.5 C 117.584,197.178 117.917,205.845 118.5,214.5C 117.833,213.167 117.167,211.833 116.5,210.5C 116.175,202.981 116.508,195.648 117.5,188.5 Z"/></g>
<g><path style="opacity:0.922" fill="#767676" d="M 419.5,190.5 C 421.821,193.131 423.654,196.131 425,199.5C 425.497,201.81 425.663,204.143 425.5,206.5C 423.13,201.352 421.13,196.018 419.5,190.5 Z"/></g>
<g><path style="opacity:1" fill="#d7d7d7" d="M 124.5,173.5 C 124.335,177.333 123.002,180.666 120.5,183.5C 120.167,188.833 119.833,194.167 119.5,199.5C 118.956,207.172 119.956,214.505 122.5,221.5C 121.167,219.833 119.833,218.167 118.5,216.5C 118.5,215.833 118.5,215.167 118.5,214.5C 117.917,205.845 117.584,197.178 117.5,188.5C 118.43,183.712 119.763,179.045 121.5,174.5C 121.833,174.5 122.167,174.5 122.5,174.5C 123.167,174.167 123.833,173.833 124.5,173.5 Z"/></g>
<g><path style="opacity:1" fill="#4d4d4d" d="M 406.5,210.5 C 407.6,212.277 408.434,214.277 409,216.5C 409.667,227.167 409.667,237.833 409,248.5C 408.626,250.491 407.793,252.158 406.5,253.5C 408.53,241.63 409.03,229.63 408,217.5C 407.768,216.263 407.268,215.263 406.5,214.5C 406.5,213.167 406.5,211.833 406.5,210.5 Z"/></g>
<g><path style="opacity:0.539" fill="#c1c1c1" d="M 427.5,210.5 C 428.827,214.951 429.494,219.784 429.5,225C 429.333,229.833 429.167,234.667 429,239.5C 428.617,240.056 428.117,240.389 427.5,240.5C 427.5,230.5 427.5,220.5 427.5,210.5 Z"/></g>
<g><path style="opacity:0.753" fill="#616161" d="M 102.5,221.5 C 106.71,227.395 110.377,233.728 113.5,240.5C 112.167,239.5 110.833,238.5 109.5,237.5C 107.895,233.903 105.895,230.569 103.5,227.5C 103.483,225.435 103.15,223.435 102.5,221.5 Z"/></g>
<g><path style="opacity:1" fill="#a7a7a7" d="M 172.5,223.5 C 166.781,223.183 163.781,225.85 163.5,231.5C 162.189,229.44 162.189,227.274 163.5,225C 166.314,222.53 169.314,222.03 172.5,223.5 Z"/></g>
<g><path style="opacity:1" fill="#585858" d="M 172.5,223.5 C 173.496,223.414 174.329,223.748 175,224.5C 176.989,228.64 179.156,232.64 181.5,236.5C 178.021,233.171 175.021,229.337 172.5,225C 168.746,224.249 166.413,225.749 165.5,229.5C 166.837,233.245 168.171,236.911 169.5,240.5C 167.139,237.772 165.139,234.772 163.5,231.5C 163.781,225.85 166.781,223.183 172.5,223.5 Z"/></g>
<g><path style="opacity:1" fill="#474747" d="M 118.5,216.5 C 119.833,218.167 121.167,219.833 122.5,221.5C 122.34,223.199 122.506,224.866 123,226.5C 124.344,229.865 126.177,232.865 128.5,235.5C 128.5,236.833 128.5,238.167 128.5,239.5C 126.777,237.747 125.277,235.747 124,233.5C 122.06,227.846 120.226,222.18 118.5,216.5 Z"/></g>
<g><path style="opacity:1" fill="#a1a1a0" d="M 362.5,226.5 C 362.622,231.232 362.122,235.898 361,240.5C 358.228,243.709 356.228,247.375 355,251.5C 352.963,253.706 350.797,255.706 348.5,257.5C 348.925,254.881 349.925,252.547 351.5,250.5C 354.309,246.232 357.143,241.898 360,237.5C 360.495,235.527 360.662,233.527 360.5,231.5C 362.381,227.168 360.881,224.501 356,223.5C 353.849,223.643 352.182,224.643 351,226.5C 350.4,228.91 349.234,230.91 347.5,232.5C 347.34,230.801 347.506,229.134 348,227.5C 352.642,221.327 357.475,220.994 362.5,226.5 Z"/></g>
<g><path style="opacity:0.796" fill="#7e7e7e" d="M 425.5,206.5 C 427.104,207.287 427.771,208.62 427.5,210.5C 427.5,220.5 427.5,230.5 427.5,240.5C 426.833,245.508 426,250.508 425,255.5C 422.675,259.162 421.342,263.162 421,267.5C 419.303,270.672 417.47,273.672 415.5,276.5C 419.379,267.593 421.879,258.26 423,248.5C 423.833,247.5 424.667,246.5 425.5,245.5C 426.796,232.468 426.796,219.468 425.5,206.5 Z"/></g>
<g><path style="opacity:1" fill="#9e9e9e" d="M 346.5,235.5 C 345.316,240.201 343.316,244.534 340.5,248.5C 338.833,249.833 337.167,251.167 335.5,252.5C 338.514,248.645 340.681,244.311 342,239.5C 343.371,237.959 344.871,236.625 346.5,235.5 Z"/></g>
<g><path style="opacity:1" fill="#a5a5a5" d="M 406.5,214.5 C 407.268,215.263 407.768,216.263 408,217.5C 409.03,229.63 408.53,241.63 406.5,253.5C 406.5,253.833 406.5,254.167 406.5,254.5C 405.167,256.167 403.833,257.833 402.5,259.5C 405.959,244.725 407.293,229.725 406.5,214.5 Z"/></g>
<g><path style="opacity:1" fill="#979797" d="M 169.5,240.5 C 172.346,244.355 175.013,248.355 177.5,252.5C 172.816,249.786 170.149,245.786 169.5,240.5 Z"/></g>
<g><path style="opacity:1" fill="#363636" d="M 182.5,238.5 C 187.327,243.161 191.994,247.994 196.5,253C 197.094,253.464 197.761,253.631 198.5,253.5C 198.5,253.833 198.5,254.167 198.5,254.5C 197.022,254.762 195.689,254.429 194.5,253.5C 193.397,250.064 191.064,248.064 187.5,247.5C 185.101,244.86 183.434,241.86 182.5,238.5 Z"/></g>
<g><path style="opacity:1" fill="#464646" d="M 360.5,231.5 C 360.662,233.527 360.495,235.527 360,237.5C 357.143,241.898 354.309,246.232 351.5,250.5C 353.944,243.797 356.944,237.464 360.5,231.5 Z"/></g>
<g><path style="opacity:1" fill="#bdbdbd" d="M 128.5,235.5 C 131.964,238.403 134.464,242.069 136,246.5C 140.01,248.269 142.51,251.269 143.5,255.5C 141.5,253.833 139.5,252.167 137.5,250.5C 135.578,245.915 132.578,242.249 128.5,239.5C 128.5,238.167 128.5,236.833 128.5,235.5 Z"/></g>
<g><path style="opacity:0.475" fill="#949494" d="M 109.5,237.5 C 110.833,238.5 112.167,239.5 113.5,240.5C 118.395,245.943 123.062,251.61 127.5,257.5C 128.833,259.167 130.167,260.833 131.5,262.5C 127.263,259.772 123.429,256.439 120,252.5C 116.284,247.623 112.784,242.623 109.5,237.5 Z"/></g>
<g><path style="opacity:1" fill="#424242" d="M 137.5,250.5 C 139.5,252.167 141.5,253.833 143.5,255.5C 145.167,257.833 147.167,259.833 149.5,261.5C 150.167,262.5 150.833,263.5 151.5,264.5C 145.833,260.833 141.167,256.167 137.5,250.5 Z"/></g>
<g><path style="opacity:0.922" fill="#4e4e4e" d="M 127.5,257.5 C 133.776,262.107 139.443,267.441 144.5,273.5C 139.893,270.232 135.559,266.565 131.5,262.5C 130.167,260.833 128.833,259.167 127.5,257.5 Z"/></g>
<g><path style="opacity:1" fill="#858585" d="M 335.5,253.5 C 333.006,257.338 329.673,260.005 325.5,261.5C 328.539,258.46 331.873,255.794 335.5,253.5 Z"/></g>
<g><path style="opacity:1" fill="#393939" d="M 340.5,248.5 C 335.971,257.36 328.971,263.36 319.5,266.5C 317.547,267.156 315.547,267.489 313.5,267.5C 314.167,266.833 314.833,266.167 315.5,265.5C 318.149,263.891 321.149,263.057 324.5,263C 325.056,262.617 325.389,262.117 325.5,261.5C 329.673,260.005 333.006,257.338 335.5,253.5C 335.5,253.167 335.5,252.833 335.5,252.5C 337.167,251.167 338.833,249.833 340.5,248.5 Z"/></g>
<g><path style="opacity:1" fill="#a4a4a4" d="M 198.5,254.5 C 198.5,254.167 198.5,253.833 198.5,253.5C 204.591,256.34 210.591,259.34 216.5,262.5C 216.5,262.833 216.5,263.167 216.5,263.5C 209.778,261.982 203.778,258.982 198.5,254.5 Z"/></g>
<g><path style="opacity:1" fill="#5a5a5a" d="M 187.5,262.5 C 191.1,264.43 194.1,267.097 196.5,270.5C 192.9,268.57 189.9,265.903 187.5,262.5 Z"/></g>
<g><path style="opacity:1" fill="#7a7a7a" d="M 347.5,257.5 C 345.226,262.774 341.56,266.774 336.5,269.5C 340.253,265.421 343.919,261.421 347.5,257.5 Z"/></g>
<g><path style="opacity:1" fill="#747474" d="M 406.5,254.5 C 404.762,262.321 400.762,268.654 394.5,273.5C 397.346,268.993 400.013,264.327 402.5,259.5C 403.833,257.833 405.167,256.167 406.5,254.5 Z"/></g>
<g><path style="opacity:1" fill="#858585" d="M 216.5,263.5 C 221.884,265.203 227.218,266.869 232.5,268.5C 226.355,269.077 221.021,267.41 216.5,263.5 Z"/></g>
<g><path style="opacity:0.996" fill="#a9a9a9" d="M 149.5,261.5 C 156.701,265.032 162.701,270.032 167.5,276.5C 161.902,272.909 156.569,268.909 151.5,264.5C 150.833,263.5 150.167,262.5 149.5,261.5 Z"/></g>
<g><path style="opacity:1" fill="#cbcbcb" d="M 216.5,263.5 C 216.5,263.167 216.5,262.833 216.5,262.5C 218.857,262.337 221.19,262.503 223.5,263C 227.658,265.186 231.991,266.852 236.5,268C 262.978,271.907 289.312,271.074 315.5,265.5C 314.833,266.167 314.167,266.833 313.5,267.5C 293.603,270.92 273.603,272.92 253.5,273.5C 253.5,273.167 253.5,272.833 253.5,272.5C 247.246,271.775 240.913,270.775 234.5,269.5C 233.508,269.672 232.842,269.338 232.5,268.5C 227.218,266.869 221.884,265.203 216.5,263.5 Z"/></g>
<g><path style="opacity:1" fill="#cdcdcd" d="M 178.5,254.5 C 181.5,257.167 184.5,259.833 187.5,262.5C 189.9,265.903 192.9,268.57 196.5,270.5C 198.5,271.5 200.5,272.5 202.5,273.5C 203.167,274.5 203.833,275.5 204.5,276.5C 202.345,276.628 200.345,276.128 198.5,275C 194.029,272.674 190.029,269.84 186.5,266.5C 186.649,265.448 186.483,264.448 186,263.5C 182.888,260.899 180.388,257.899 178.5,254.5 Z"/></g>
<g><path style="opacity:1" fill="#696969" d="M 234.5,269.5 C 240.913,270.775 247.246,271.775 253.5,272.5C 248.125,272.828 242.792,272.495 237.5,271.5C 236.398,270.824 235.398,270.158 234.5,269.5 Z"/></g>
<g><path style="opacity:1" fill="#484848" d="M 313.5,267.5 C 312.571,268.315 311.571,269.148 310.5,270C 300.236,271.586 289.903,272.92 279.5,274C 270.657,274.824 261.99,274.657 253.5,273.5C 273.603,272.92 293.603,270.92 313.5,267.5 Z"/></g>
<g><path style="opacity:1" fill="#787878" d="M 202.5,273.5 C 204.544,274.508 206.544,275.508 208.5,276.5C 207.167,276.5 205.833,276.5 204.5,276.5C 203.833,275.5 203.167,274.5 202.5,273.5 Z"/></g>
<g><path style="opacity:1" fill="#979797" d="M 336.5,269.5 C 334.169,273.275 330.836,275.609 326.5,276.5C 326.408,279.4 327.741,281.067 330.5,281.5C 329.167,281.5 327.833,281.5 326.5,281.5C 325.17,280.168 323.503,279.335 321.5,279C 320.549,278.282 320.383,277.449 321,276.5C 324.279,274.74 327.779,273.574 331.5,273C 332.789,271.198 334.456,270.031 336.5,269.5 Z"/></g>
<g><path style="opacity:1" fill="#363636" d="M 210.5,277.5 C 215.371,277.192 220.037,278.025 224.5,280C 238.496,280.5 252.496,280.667 266.5,280.5C 266.5,280.833 266.5,281.167 266.5,281.5C 247.899,283.551 229.566,282.551 211.5,278.5C 210.833,278.5 210.5,278.167 210.5,277.5 Z"/></g>
<g><path style="opacity:1" fill="#787878" d="M 273.5,279.5 C 281.019,279.175 288.352,279.508 295.5,280.5C 285.815,280.422 276.148,280.755 266.5,281.5C 266.5,281.167 266.5,280.833 266.5,280.5C 268.861,280.326 271.194,279.993 273.5,279.5 Z"/></g>
<g><path style="opacity:1" fill="#c9c9c9" d="M 211.5,278.5 C 229.566,282.551 247.899,283.551 266.5,281.5C 276.148,280.755 285.815,280.422 295.5,280.5C 308.527,281.875 317.527,288.542 322.5,300.5C 324.274,303.186 325.607,306.186 326.5,309.5C 328.542,322.059 329.542,334.726 329.5,347.5C 325.616,347.576 321.95,346.91 318.5,345.5C 316.194,345.007 313.861,344.674 311.5,344.5C 305.658,342.245 299.658,340.578 293.5,339.5C 292.737,338.732 291.737,338.232 290.5,338C 275.994,337.173 261.661,337.339 247.5,338.5C 243.466,338.505 239.466,338.838 235.5,339.5C 238.277,338.186 241.277,337.186 244.5,336.5C 254.812,335.501 265.145,335.168 275.5,335.5C 277.815,326.206 277.981,316.873 276,307.5C 271.261,299.43 265.761,291.93 259.5,285C 249.5,284.667 239.5,284.333 229.5,284C 223.736,282.766 218.069,281.433 212.5,280C 211.944,279.617 211.611,279.117 211.5,278.5 Z"/></g>
<g><path style="opacity:0.992" fill="#3d3d3d" d="M 149.5,277.5 C 152.355,279.997 155.688,281.664 159.5,282.5C 159.863,283.183 160.196,283.85 160.5,284.5C 158.833,283.833 157.167,283.167 155.5,282.5C 152.911,281.581 150.911,279.914 149.5,277.5 Z"/></g>
<g><path style="opacity:1" fill="#4e4e4e" d="M 273.5,279.5 C 281.323,278.344 289.323,278.177 297.5,279C 300.569,280.846 303.902,281.846 307.5,282C 315.415,286.055 320.415,292.221 322.5,300.5C 317.527,288.542 308.527,281.875 295.5,280.5C 288.352,279.508 281.019,279.175 273.5,279.5 Z"/></g>
<g><path style="opacity:1" fill="#c7c7c7" d="M 170.5,277.5 C 173.231,278.027 175.898,278.86 178.5,280C 182.448,282.23 185.781,285.064 188.5,288.5C 187.833,288.5 187.167,288.5 186.5,288.5C 183.325,285.672 179.658,283.672 175.5,282.5C 173.451,281.118 171.785,279.452 170.5,277.5 Z"/></g>
<g><path style="opacity:1" fill="#676767" d="M 326.5,281.5 C 327.833,281.5 329.167,281.5 330.5,281.5C 346.07,286.9 362.07,287.9 378.5,284.5C 378.389,285.117 378.056,285.617 377.5,286C 359.821,290.245 342.821,288.745 326.5,281.5 Z"/></g>
<g><path style="opacity:0.584" fill="#9c9c9c" d="M 155.5,282.5 C 157.167,283.167 158.833,283.833 160.5,284.5C 161.262,286.262 162.596,287.262 164.5,287.5C 165.441,289.05 166.107,290.716 166.5,292.5C 164.801,292.473 163.467,291.806 162.5,290.5C 161.172,288.281 159.172,286.948 156.5,286.5C 156.567,285.041 156.234,283.708 155.5,282.5 Z"/></g>
<g><path style="opacity:1" fill="#484848" d="M 175.5,282.5 C 179.658,283.672 183.325,285.672 186.5,288.5C 186.833,289.167 187.167,289.833 187.5,290.5C 183.11,288.339 179.11,285.672 175.5,282.5 Z"/></g>
<g><path style="opacity:0.898" fill="#919191" d="M 415.5,276.5 C 411.654,285.683 405.32,292.683 396.5,297.5C 403.856,291.475 410.189,284.475 415.5,276.5 Z"/></g>
<g><path style="opacity:1" fill="#3a3a3a" d="M 164.5,287.5 C 169.304,290.479 174.137,293.479 179,296.5C 179.667,300.167 179.667,303.833 179,307.5C 177.382,310.404 175.215,311.404 172.5,310.5C 173.11,309.609 173.443,308.609 173.5,307.5C 175.144,307.714 176.644,307.38 178,306.5C 178.667,303.5 178.667,300.5 178,297.5C 175.44,295.414 172.607,293.747 169.5,292.5C 168.702,292.957 168.369,293.624 168.5,294.5C 167.833,293.833 167.167,293.167 166.5,292.5C 166.107,290.716 165.441,289.05 164.5,287.5 Z"/></g>
<g><path style="opacity:0.735" fill="#f0f0f0" d="M 171.5,296.5 C 172.93,296.421 174.264,296.754 175.5,297.5C 176.833,300.167 176.833,302.833 175.5,305.5C 174.817,305.137 174.15,304.804 173.5,304.5C 173.635,301.583 172.968,298.916 171.5,296.5 Z"/></g>
<g><path style="opacity:1" fill="#949494" d="M 173.5,307.5 C 173.5,306.5 173.5,305.5 173.5,304.5C 174.15,304.804 174.817,305.137 175.5,305.5C 176.833,302.833 176.833,300.167 175.5,297.5C 174.264,296.754 172.93,296.421 171.5,296.5C 170.5,295.833 169.5,295.167 168.5,294.5C 168.369,293.624 168.702,292.957 169.5,292.5C 172.607,293.747 175.44,295.414 178,297.5C 178.667,300.5 178.667,303.5 178,306.5C 176.644,307.38 175.144,307.714 173.5,307.5 Z"/></g>
<g><path style="opacity:1" fill="#505050" d="M 371.5,305.5 C 364.018,306.492 356.352,306.825 348.5,306.5C 347.167,306.5 345.833,306.5 344.5,306.5C 342.586,309.684 341.92,313.351 342.5,317.5C 341.515,313.366 341.182,309.032 341.5,304.5C 351.473,305.366 361.473,305.699 371.5,305.5 Z"/></g>
<g><path style="opacity:0.748" fill="#9b9b9b" d="M 392.5,299.5 C 391.284,301.451 389.618,302.951 387.5,304C 375.274,308.31 362.607,309.644 349.5,308C 348.944,307.617 348.611,307.117 348.5,306.5C 356.352,306.825 364.018,306.492 371.5,305.5C 379.13,305.511 386.13,303.511 392.5,299.5 Z"/></g>
<g><path style="opacity:0.998" fill="#b2b2b2" d="M 344.5,306.5 C 344.5,310.5 344.5,314.5 344.5,318.5C 343.508,318.672 342.842,318.338 342.5,317.5C 341.92,313.351 342.586,309.684 344.5,306.5 Z"/></g>
<g><path style="opacity:1" fill="#4a4a4a" d="M 190.5,314.5 C 191.33,325.326 191.83,336.326 192,347.5C 192.674,348.578 193.674,349.245 195,349.5C 197.137,348.923 199.304,348.59 201.5,348.5C 199.883,349.972 197.883,350.639 195.5,350.5C 193.9,350.449 192.4,350.116 191,349.5C 190.5,337.838 190.333,326.171 190.5,314.5 Z"/></g>
<g><path style="opacity:1" fill="#6c6c6c" d="M 326.5,309.5 C 327.117,309.611 327.617,309.944 328,310.5C 330.325,323.289 331.158,336.289 330.5,349.5C 325.892,349.689 321.892,348.355 318.5,345.5C 321.95,346.91 325.616,347.576 329.5,347.5C 329.542,334.726 328.542,322.059 326.5,309.5 Z"/></g>
<g><path style="opacity:1" fill="#9e9e9e" d="M 186.5,288.5 C 187.167,288.5 187.833,288.5 188.5,288.5C 189.122,289.627 189.955,290.627 191,291.5C 192.061,310.16 192.894,328.826 193.5,347.5C 201.539,346.324 209.539,344.824 217.5,343C 223.147,340.068 229.147,338.901 235.5,339.5C 235.5,339.833 235.5,340.167 235.5,340.5C 223.945,342.52 212.612,345.187 201.5,348.5C 199.304,348.59 197.137,348.923 195,349.5C 193.674,349.245 192.674,348.578 192,347.5C 191.83,336.326 191.33,325.326 190.5,314.5C 190.666,307.159 190.5,299.826 190,292.5C 189.292,291.619 188.458,290.953 187.5,290.5C 187.167,289.833 186.833,289.167 186.5,288.5 Z"/></g>
<g><path style="opacity:0.072" fill="#f3f3f3" d="M 407.5,21.5 C 410.187,21.3359 412.854,21.5026 415.5,22C 432.526,34.185 448.526,47.685 463.5,62.5C 471.185,73.197 479.352,83.5304 488,93.5C 489.089,97.0484 489.589,100.715 489.5,104.5C 491.238,112.208 488.571,117.374 481.5,120C 464.731,134.552 447.398,148.219 429.5,161C 425.217,162.475 421.217,164.475 417.5,167C 416.207,167.49 414.873,167.657 413.5,167.5C 417.414,173.331 421.247,179.331 425,185.5C 428.198,192.298 430.865,199.298 433,206.5C 436.229,236.246 430.896,263.912 417,289.5C 399.443,309.714 377.277,317.38 350.5,312.5C 350.351,313.552 350.517,314.552 351,315.5C 378.339,340.341 403.839,367.008 427.5,395.5C 434.809,405.464 435.309,415.797 429,426.5C 421.244,431.242 412.744,432.742 403.5,431C 399.886,428.899 396.219,427.232 392.5,426C 391.667,426.833 390.833,427.667 390,428.5C 389.508,435.796 387.175,442.463 383,448.5C 371.503,462.71 357.003,471.877 339.5,476C 323.898,478.212 308.231,478.879 292.5,478C 287.167,476 281.833,474 276.5,472C 272.333,467.833 268.167,463.667 264,459.5C 261.23,464.271 257.73,468.437 253.5,472C 226.801,480.85 200.134,480.517 173.5,471C 167.189,467.508 161.189,463.508 155.5,459C 151.667,453.833 147.833,448.667 144,443.5C 139.553,436.764 138.886,429.764 142,422.5C 145.575,417.745 149.908,416.745 155,419.5C 156.816,423.099 158.483,426.766 160,430.5C 164.178,434.292 169.011,435.292 174.5,433.5C 177.843,431.496 181.176,429.496 184.5,427.5C 196.424,415.699 210.424,407.199 226.5,402C 223.254,399.647 221.087,396.48 220,392.5C 219.685,384.604 220.685,376.937 223,369.5C 231.013,362.008 238.346,362.342 245,370.5C 248.414,377.775 249.414,385.441 248,393.5C 247.55,395.519 246.717,397.352 245.5,399C 252.186,399.68 258.519,401.513 264.5,404.5C 267.944,403.532 271.278,402.365 274.5,401C 276.41,400.592 277.41,399.425 277.5,397.5C 275.081,388.574 274.915,379.574 277,370.5C 279.167,367.667 281.667,365.167 284.5,363C 286.035,362.504 287.535,362.67 289,363.5C 290.28,363.387 291.113,362.72 291.5,361.5C 280.525,357.758 269.192,356.591 257.5,358C 248.031,360.037 238.364,361.37 228.5,362C 220.949,365.654 212.949,367.654 204.5,368C 196.808,371.248 188.808,372.248 180.5,371C 179.667,370.167 178.833,369.333 178,368.5C 171.833,374.667 165.667,380.833 159.5,387C 142.82,402.011 125.82,416.678 108.5,431C 82.1436,435.646 72.6436,425.146 80,399.5C 105.032,371.303 131.199,344.303 158.5,318.5C 160.396,317.534 162.396,317.201 164.5,317.5C 161.833,320.833 159.167,324.167 156.5,327.5C 155.833,327.5 155.167,327.5 154.5,327.5C 152.787,328.305 151.121,329.305 149.5,330.5C 146.167,333.833 142.833,337.167 139.5,340.5C 138.873,341.417 138.539,342.417 138.5,343.5C 138.443,344.609 138.11,345.609 137.5,346.5C 132.535,349.132 128.535,352.799 125.5,357.5C 124.022,357.238 122.689,357.571 121.5,358.5C 117.753,361.908 114.42,365.574 111.5,369.5C 110.618,371.084 109.785,372.751 109,374.5C 103.9,379.092 99.4002,384.092 95.5,389.5C 92.865,390.473 90.865,392.14 89.5,394.5C 87.281,395.828 85.9477,397.828 85.5,400.5C 84.8333,401.833 84.1667,403.167 83.5,404.5C 82.1858,406.915 81.5191,409.748 81.5,413C 81.8333,415.833 82.1667,418.667 82.5,421.5C 88.4359,427.09 95.4359,428.923 103.5,427C 106.369,423.962 109.369,421.129 112.5,418.5C 114.5,416.833 116.5,415.167 118.5,413.5C 124.055,410.617 128.722,406.617 132.5,401.5C 132.5,400.833 132.833,400.5 133.5,400.5C 145.871,390.463 156.871,379.13 166.5,366.5C 167.5,366.167 168.167,365.5 168.5,364.5C 171.631,361.871 174.631,359.038 177.5,356C 178.448,355.517 179.448,355.351 180.5,355.5C 179.99,358.388 180.656,360.721 182.5,362.5C 184.635,364.369 187.302,365.036 190.5,364.5C 197.583,363.554 204.249,361.554 210.5,358.5C 217.893,356.608 225.227,354.941 232.5,353.5C 238.13,352.708 243.797,352.375 249.5,352.5C 259.49,351.27 269.49,351.27 279.5,352.5C 286.655,354.443 293.988,355.61 301.5,356C 309.181,358.888 317.181,361.054 325.5,362.5C 330.565,364.803 335.899,366.136 341.5,366.5C 345.833,370.5 350.167,374.5 354.5,378.5C 361.407,386.242 368.74,393.408 376.5,400C 381.092,405.1 386.092,409.6 391.5,413.5C 395.676,417.74 400.009,421.74 404.5,425.5C 406.571,426.809 409.071,427.475 412,427.5C 416.102,427.445 419.935,426.445 423.5,424.5C 424.127,423.583 424.461,422.583 424.5,421.5C 425.458,421.047 426.292,420.381 427,419.5C 427.83,413.804 427.663,408.137 426.5,402.5C 425.735,401.388 424.735,400.721 423.5,400.5C 420.558,396.554 417.225,392.888 413.5,389.5C 408.559,382.89 402.892,376.89 396.5,371.5C 392.167,366.833 387.833,362.167 383.5,357.5C 383.631,356.761 383.464,356.094 383,355.5C 370.554,342.55 357.721,330.217 344.5,318.5C 344.5,314.5 344.5,310.5 344.5,306.5C 345.833,306.5 347.167,306.5 348.5,306.5C 348.611,307.117 348.944,307.617 349.5,308C 362.607,309.644 375.274,308.31 387.5,304C 389.618,302.951 391.284,301.451 392.5,299.5C 394.153,299.34 395.486,298.674 396.5,297.5C 405.32,292.683 411.654,285.683 415.5,276.5C 417.47,273.672 419.303,270.672 421,267.5C 421.342,263.162 422.675,259.162 425,255.5C 426,250.508 426.833,245.508 427.5,240.5C 428.117,240.389 428.617,240.056 429,239.5C 429.167,234.667 429.333,229.833 429.5,225C 429.494,219.784 428.827,214.951 427.5,210.5C 427.771,208.62 427.104,207.287 425.5,206.5C 425.663,204.143 425.497,201.81 425,199.5C 423.654,196.131 421.821,193.131 419.5,190.5C 419.762,189.022 419.429,187.689 418.5,186.5C 414.923,183.093 412.256,179.093 410.5,174.5C 409.482,173.807 408.482,173.141 407.5,172.5C 406.067,170.442 405.4,168.108 405.5,165.5C 411.357,162.812 417.024,159.646 422.5,156C 424.81,155.503 427.143,155.337 429.5,155.5C 429.5,153.833 429.5,152.167 429.5,150.5C 432.513,148.5 435.846,147.5 439.5,147.5C 440.031,144.221 442.031,142.887 445.5,143.5C 445.5,142.167 445.5,140.833 445.5,139.5C 447.404,139.262 448.738,138.262 449.5,136.5C 455.754,133.745 461.087,129.745 465.5,124.5C 473.3,120.554 480.466,115.554 487,109.5C 487.167,108.167 487.333,106.833 487.5,105.5C 487.415,103.667 486.748,102.334 485.5,101.5C 484.788,99.0721 483.788,96.7388 482.5,94.5C 478.789,91.0415 475.789,87.0415 473.5,82.5C 472.007,80.3295 470.007,78.9962 467.5,78.5C 465.937,77.0552 464.604,75.3885 463.5,73.5C 463.025,69.6913 461.025,67.0246 457.5,65.5C 453.19,62.1855 449.523,58.1855 446.5,53.5C 445.583,52.8728 444.583,52.5394 443.5,52.5C 441.718,50.394 440.385,48.0606 439.5,45.5C 437.071,45.1156 434.737,44.449 432.5,43.5C 430.681,40.754 428.681,38.0873 426.5,35.5C 421.562,33.2102 416.895,30.5435 412.5,27.5C 411.805,24.6147 410.139,22.6147 407.5,21.5 Z M 294.5,362.5 C 303.9,365.096 313.567,367.263 323.5,369C 328.167,371 332.833,373 337.5,375C 350.045,385.97 362.712,396.97 375.5,408C 377.363,410.364 379.029,412.864 380.5,415.5C 374.215,417.084 371.048,421.084 371,427.5C 367.807,434.123 362.64,436.29 355.5,434C 342.385,422.603 328.052,412.937 312.5,405C 309.167,404 305.833,403 302.5,402C 301.643,401.311 300.977,400.478 300.5,399.5C 304.174,392.705 305.341,385.372 304,377.5C 302.784,375.038 302.118,372.371 302,369.5C 300.829,368.107 299.329,367.273 297.5,367C 295.859,365.871 294.859,364.371 294.5,362.5 Z"/></g>
<g><path style="opacity:0.856" fill="#6c6c6c" d="M 255.5,349.5 C 265.015,349.173 274.348,349.506 283.5,350.5C 273.161,350.334 262.828,350.5 252.5,351C 251.263,351.232 250.263,351.732 249.5,352.5C 243.797,352.375 238.13,352.708 232.5,353.5C 236.558,351.938 240.891,350.771 245.5,350C 248.817,349.502 252.15,349.335 255.5,349.5 Z"/></g>
<g><path style="opacity:1" fill="#282828" d="M 301.5,353.5 C 300.167,353.5 298.833,353.5 297.5,353.5C 293.023,352.138 288.357,351.138 283.5,350.5C 274.348,349.506 265.015,349.173 255.5,349.5C 255.918,348.778 256.584,348.278 257.5,348C 272.053,347.21 286.387,348.543 300.5,352C 301.056,352.383 301.389,352.883 301.5,353.5 Z"/></g>
<g><path style="opacity:1" fill="#4b4b4b" d="M 247.5,338.5 C 262.862,338.231 278.195,338.564 293.5,339.5C 299.658,340.578 305.658,342.245 311.5,344.5C 286.388,339.523 261.055,338.189 235.5,340.5C 235.5,340.167 235.5,339.833 235.5,339.5C 239.466,338.838 243.466,338.505 247.5,338.5 Z"/></g>
<g><path style="opacity:1" fill="#8a8a8a" d="M 247.5,338.5 C 261.661,337.339 275.994,337.173 290.5,338C 291.737,338.232 292.737,338.732 293.5,339.5C 278.195,338.564 262.862,338.231 247.5,338.5 Z"/></g>
<g><path style="opacity:0.31" fill="#a0a0a0" d="M 154.5,327.5 C 150.177,333.155 145.51,338.488 140.5,343.5C 139.833,343.5 139.167,343.5 138.5,343.5C 138.539,342.417 138.873,341.417 139.5,340.5C 142.833,337.167 146.167,333.833 149.5,330.5C 151.121,329.305 152.787,328.305 154.5,327.5 Z"/></g>
<g><path style="opacity:0.773" fill="#323232" d="M 154.5,327.5 C 155.167,327.5 155.833,327.5 156.5,327.5C 152.167,333.833 146.833,339.167 140.5,343.5C 145.51,338.488 150.177,333.155 154.5,327.5 Z"/></g>
<g><path style="opacity:0.663" fill="#888888" d="M 344.5,318.5 C 357.721,330.217 370.554,342.55 383,355.5C 383.464,356.094 383.631,356.761 383.5,357.5C 370.167,344.833 357.167,331.833 344.5,318.5 Z"/></g>
<g><path style="opacity:1" fill="#828282" d="M 283.5,350.5 C 288.357,351.138 293.023,352.138 297.5,353.5C 293.147,353.235 288.813,352.735 284.5,352C 283.944,351.617 283.611,351.117 283.5,350.5 Z"/></g>
<g><path style="opacity:1" fill="#646464" d="M 297.5,353.5 C 298.833,353.5 300.167,353.5 301.5,353.5C 305.084,353.975 308.417,354.975 311.5,356.5C 306.613,356.027 301.946,355.027 297.5,353.5 Z"/></g>
<g><path style="opacity:0.674" fill="#d3d3d3" d="M 283.5,350.5 C 283.611,351.117 283.944,351.617 284.5,352C 288.813,352.735 293.147,353.235 297.5,353.5C 301.946,355.027 306.613,356.027 311.5,356.5C 315.759,358.946 320.426,360.279 325.5,360.5C 325.5,361.167 325.5,361.833 325.5,362.5C 317.181,361.054 309.181,358.888 301.5,356C 293.988,355.61 286.655,354.443 279.5,352.5C 269.49,351.27 259.49,351.27 249.5,352.5C 250.263,351.732 251.263,351.232 252.5,351C 262.828,350.5 273.161,350.334 283.5,350.5 Z"/></g>
<g><path style="opacity:1" fill="#4c4c4c" d="M 232.5,353.5 C 225.227,354.941 217.893,356.608 210.5,358.5C 206.462,358.958 202.462,359.624 198.5,360.5C 209.293,356.141 220.627,353.807 232.5,353.5 Z"/></g>
<g><path style="opacity:0.98" fill="#454545" d="M 311.5,356.5 C 317.37,356.126 322.703,357.459 327.5,360.5C 326.833,360.5 326.167,360.5 325.5,360.5C 320.426,360.279 315.759,358.946 311.5,356.5 Z"/></g>
<g><path style="opacity:0.761" fill="#393939" d="M 137.5,346.5 C 137.649,347.552 137.483,348.552 137,349.5C 123.149,362.512 109.315,375.846 95.5,389.5C 99.4002,384.092 103.9,379.092 109,374.5C 109.785,372.751 110.618,371.084 111.5,369.5C 117.024,366.654 121.69,362.654 125.5,357.5C 128.535,352.799 132.535,349.132 137.5,346.5 Z"/></g>
<g><path style="opacity:0.188" fill="#a7a7a7" d="M 125.5,357.5 C 121.69,362.654 117.024,366.654 111.5,369.5C 114.42,365.574 117.753,361.908 121.5,358.5C 122.689,357.571 124.022,357.238 125.5,357.5 Z"/></g>
<g><path style="opacity:0.859" fill="#7e7e7e" d="M 325.5,360.5 C 326.167,360.5 326.833,360.5 327.5,360.5C 328.6,361.558 329.934,362.392 331.5,363C 334.553,363.179 337.553,363.679 340.5,364.5C 340.863,365.183 341.196,365.85 341.5,366.5C 335.899,366.136 330.565,364.803 325.5,362.5C 325.5,361.833 325.5,361.167 325.5,360.5 Z"/></g>
<g><path style="opacity:0.973" fill="#474747" d="M 182.5,362.5 C 180.656,360.721 179.99,358.388 180.5,355.5C 179.448,355.351 178.448,355.517 177.5,356C 174.631,359.038 171.631,361.871 168.5,364.5C 171.107,360.224 174.441,356.557 178.5,353.5C 179.442,353.608 180.275,353.941 181,354.5C 181.272,357.254 181.772,359.921 182.5,362.5 Z"/></g>
<g><path style="opacity:0.827" fill="#969696" d="M 210.5,358.5 C 204.249,361.554 197.583,363.554 190.5,364.5C 192.849,362.659 195.515,361.326 198.5,360.5C 202.462,359.624 206.462,358.958 210.5,358.5 Z"/></g>
<g><path style="opacity:0.949" fill="#535353" d="M 396.5,371.5 C 402.892,376.89 408.559,382.89 413.5,389.5C 407.108,384.11 401.441,378.11 396.5,371.5 Z"/></g>
<g><path style="opacity:0.994" fill="#0c0c0c" d="M 235.5,372.5 C 235.5,372.833 235.5,373.167 235.5,373.5C 235.685,375.196 236.519,376.529 238,377.5C 238.667,382.5 238.667,387.5 238,392.5C 237.135,395.203 235.301,396.536 232.5,396.5C 230.696,396.014 229.029,395.347 227.5,394.5C 227.167,394.5 226.833,394.5 226.5,394.5C 224.408,386.948 225.408,379.948 229.5,373.5C 231.396,372.534 233.396,372.201 235.5,372.5 Z"/></g>
<g><path style="opacity:0.988" fill="#0e0e0e" d="M 294.5,374.5 C 295.407,380.106 295.74,385.773 295.5,391.5C 295.5,391.833 295.5,392.167 295.5,392.5C 293.749,394.399 291.583,395.733 289,396.5C 287.061,396.046 285.228,395.379 283.5,394.5C 280.901,387.793 280.901,381.126 283.5,374.5C 286.246,371.813 289.58,370.98 293.5,372C 294.252,372.671 294.586,373.504 294.5,374.5 Z"/></g>
<g><path style="opacity:0.6" fill="#727272" d="M 235.5,372.5 C 233.396,372.201 231.396,372.534 229.5,373.5C 225.408,379.948 224.408,386.948 226.5,394.5C 224.787,393.365 224.12,391.698 224.5,389.5C 224.5,386.167 224.5,382.833 224.5,379.5C 225.768,375.065 228.601,372.065 233,370.5C 234.301,370.639 235.134,371.305 235.5,372.5 Z"/></g>
<g><path style="opacity:0.99" fill="#3d3d3d" d="M 235.5,373.5 C 237.129,374.625 238.629,375.959 240,377.5C 240.667,381.833 240.667,386.167 240,390.5C 238.7,397.337 234.867,399.67 228.5,397.5C 228.443,396.391 228.11,395.391 227.5,394.5C 229.029,395.347 230.696,396.014 232.5,396.5C 235.301,396.536 237.135,395.203 238,392.5C 238.667,387.5 238.667,382.5 238,377.5C 236.519,376.529 235.685,375.196 235.5,373.5 Z"/></g>
<g><path style="opacity:0.94" fill="#515151" d="M 294.5,374.5 C 295.5,374.833 296.167,375.5 296.5,376.5C 297.55,381.114 297.717,385.78 297,390.5C 296.617,391.056 296.117,391.389 295.5,391.5C 295.74,385.773 295.407,380.106 294.5,374.5 Z"/></g>
<g><path style="opacity:0.255" fill="#b4b4b4" d="M 224.5,379.5 C 224.5,382.833 224.5,386.167 224.5,389.5C 223.235,388.486 222.569,386.986 222.5,385C 222.667,383.5 222.833,382 223,380.5C 223.383,379.944 223.883,379.611 224.5,379.5 Z"/></g>
<g><path style="opacity:0.494" fill="#8d8d8d" d="M 283.5,374.5 C 280.901,381.126 280.901,387.793 283.5,394.5C 282.069,394.119 281.236,393.119 281,391.5C 280.333,387.167 280.333,382.833 281,378.5C 281.2,376.68 282.034,375.347 283.5,374.5 Z"/></g>
<g><path style="opacity:0.957" fill="#545454" d="M 152.5,380.5 C 148.167,385.5 143.5,390.167 138.5,394.5C 142.167,388.833 146.833,384.167 152.5,380.5 Z"/></g>
<g><path style="opacity:0.82" fill="#a7a7a7" d="M 166.5,366.5 C 156.871,379.13 145.871,390.463 133.5,400.5C 134.838,398.304 136.505,396.304 138.5,394.5C 143.5,390.167 148.167,385.5 152.5,380.5C 156.646,375.272 161.312,370.605 166.5,366.5 Z"/></g>
<g><path style="opacity:0.451" fill="#949494" d="M 95.5,389.5 C 94.0892,391.914 92.0892,393.581 89.5,394.5C 90.865,392.14 92.865,390.473 95.5,389.5 Z"/></g>
<g><path style="opacity:0.929" fill="#4c4c4c" d="M 295.5,392.5 C 293.915,397.764 290.582,399.431 285.5,397.5C 284.833,396.5 284.167,395.5 283.5,394.5C 285.228,395.379 287.061,396.046 289,396.5C 291.583,395.733 293.749,394.399 295.5,392.5 Z"/></g>
<g><path style="opacity:0.7" fill="#a2a2a2" d="M 235.5,373.5 C 235.5,373.167 235.5,372.833 235.5,372.5C 237.716,373.203 239.549,374.536 241,376.5C 241.667,381.833 241.667,387.167 241,392.5C 238.594,399.524 234.427,401.19 228.5,397.5C 234.867,399.67 238.7,397.337 240,390.5C 240.667,386.167 240.667,381.833 240,377.5C 238.629,375.959 237.129,374.625 235.5,373.5 Z"/></g>
<g><path style="opacity:0.478" fill="#8e8e8e" d="M 89.5,394.5 C 89.3775,397.292 88.0442,399.292 85.5,400.5C 85.9477,397.828 87.281,395.828 89.5,394.5 Z"/></g>
<g><path style="opacity:0.269" fill="#d1d1d1" d="M 296.5,376.5 C 297.117,376.611 297.617,376.944 298,377.5C 298.667,382.167 298.667,386.833 298,391.5C 296.595,395.552 295.095,399.552 293.5,403.5C 296.01,403.054 298.01,403.72 299.5,405.5C 290.167,404.167 280.833,404.167 271.5,405.5C 271.611,404.883 271.944,404.383 272.5,404C 278.5,403.667 284.5,403.333 290.5,403C 288.5,402.667 286.5,402.333 284.5,402C 285.624,401.751 286.624,401.251 287.5,400.5C 286.388,399.735 285.721,398.735 285.5,397.5C 290.582,399.431 293.915,397.764 295.5,392.5C 295.5,392.167 295.5,391.833 295.5,391.5C 296.117,391.389 296.617,391.056 297,390.5C 297.717,385.78 297.55,381.114 296.5,376.5 Z"/></g>
<g><path style="opacity:0.941" fill="#4c4c4c" d="M 138.5,394.5 C 136.505,396.304 134.838,398.304 133.5,400.5C 132.833,400.5 132.5,400.833 132.5,401.5C 129.167,403.833 125.833,406.167 122.5,408.5C 127.084,402.89 132.418,398.224 138.5,394.5 Z"/></g>
<g><path style="opacity:0.925" fill="#4f4f4f" d="M 354.5,378.5 C 367.416,389.475 379.75,401.142 391.5,413.5C 386.092,409.6 381.092,405.1 376.5,400C 368.74,393.408 361.407,386.242 354.5,378.5 Z"/></g>
<g><path style="opacity:0.589" fill="#6e6e6e" d="M 271.5,406.5 C 270.167,407.833 268.833,409.167 267.5,410.5C 265.989,412.441 263.989,412.941 261.5,412C 259.183,409.843 256.516,408.343 253.5,407.5C 243.877,405.97 234.21,406.303 224.5,408.5C 225.903,407.069 227.569,405.902 229.5,405C 239.704,403.794 249.704,404.628 259.5,407.5C 261,408.5 262.5,409.5 264,410.5C 266.147,408.522 268.647,407.189 271.5,406.5 Z"/></g>
<g><path style="opacity:0.478" fill="#8d8d8d" d="M 299.5,405.5 C 299.5,405.833 299.5,406.167 299.5,406.5C 290.167,405.167 280.833,405.167 271.5,406.5C 271.5,406.167 271.5,405.833 271.5,405.5C 280.833,404.167 290.167,404.167 299.5,405.5 Z"/></g>
<g><path style="opacity:0.745" fill="#343434" d="M 299.5,406.5 C 299.833,407.167 300.167,407.833 300.5,408.5C 291.861,407.456 283.194,407.289 274.5,408C 272.559,409.903 270.226,410.736 267.5,410.5C 268.833,409.167 270.167,407.833 271.5,406.5C 280.833,405.167 290.167,405.167 299.5,406.5 Z"/></g>
<g><path style="opacity:0.997" fill="#020202" d="M 253.5,407.5 C 256.516,408.343 259.183,409.843 261.5,412C 263.989,412.941 265.989,412.441 267.5,410.5C 270.226,410.736 272.559,409.903 274.5,408C 283.194,407.289 291.861,407.456 300.5,408.5C 305.951,410.196 311.285,412.196 316.5,414.5C 319.264,415.643 321.931,416.977 324.5,418.5C 324.894,420.71 326.227,422.043 328.5,422.5C 330.77,424.975 333.437,426.975 336.5,428.5C 336.833,429.5 337.5,430.167 338.5,430.5C 346.597,439.367 356.597,442.201 368.5,439C 369.551,437.615 370.884,436.615 372.5,436C 375.476,432.858 377.809,429.358 379.5,425.5C 380.991,426.348 381.658,427.681 381.5,429.5C 381.003,431.818 380.67,434.152 380.5,436.5C 377.793,438.88 375.793,441.88 374.5,445.5C 366.633,452.91 358.3,459.577 349.5,465.5C 345.741,465.862 342.407,467.195 339.5,469.5C 336.193,470.051 332.86,470.384 329.5,470.5C 317.495,470.667 305.495,470.5 293.5,470C 289.565,468.517 285.565,467.351 281.5,466.5C 278.733,465.779 276.733,464.113 275.5,461.5C 272.822,458.127 270.156,454.794 267.5,451.5C 267.876,448.381 266.709,446.047 264,444.5C 260.702,449.965 257.202,455.298 253.5,460.5C 251.548,461.785 249.882,463.451 248.5,465.5C 247.167,465.833 245.833,466.167 244.5,466.5C 240.668,466.882 237.335,468.215 234.5,470.5C 220.471,470.762 206.471,470.429 192.5,469.5C 188.776,467.653 184.776,466.32 180.5,465.5C 174.133,463.795 168.799,460.462 164.5,455.5C 161.381,451.043 157.381,447.709 152.5,445.5C 152.608,443.486 151.942,441.82 150.5,440.5C 147.979,435.846 146.979,430.846 147.5,425.5C 148.5,425.5 149.5,425.5 150.5,425.5C 149.996,429.481 151.329,432.481 154.5,434.5C 155.5,434.833 156.167,435.5 156.5,436.5C 163.25,440.811 170.584,441.644 178.5,439C 181.167,437.667 183.833,436.333 186.5,435C 191.707,431.433 196.374,427.266 200.5,422.5C 203.445,422.011 205.778,420.511 207.5,418C 210.921,418.121 213.588,416.788 215.5,414C 220.981,413.054 225.981,411.054 230.5,408C 238.159,407.5 245.826,407.334 253.5,407.5 Z"/></g>
<g><path style="opacity:0.141" fill="#a3a3a3" d="M 299.5,406.5 C 305.634,406.054 310.967,407.888 315.5,412C 316.252,412.671 316.586,413.504 316.5,414.5C 311.285,412.196 305.951,410.196 300.5,408.5C 300.167,407.833 299.833,407.167 299.5,406.5 Z"/></g>
<g><path style="opacity:0.948" fill="#353535" d="M 423.5,402.5 C 424.458,402.953 425.292,403.619 426,404.5C 427.008,410.41 426.508,416.077 424.5,421.5C 423.833,421.833 423.167,422.167 422.5,422.5C 424.729,415.958 425.062,409.291 423.5,402.5 Z"/></g>
<g><path style="opacity:0.784" fill="#8b8b8b" d="M 423.5,400.5 C 424.735,400.721 425.735,401.388 426.5,402.5C 427.663,408.137 427.83,413.804 427,419.5C 426.292,420.381 425.458,421.047 424.5,421.5C 426.508,416.077 427.008,410.41 426,404.5C 425.292,403.619 424.458,402.953 423.5,402.5C 423.5,401.833 423.5,401.167 423.5,400.5 Z"/></g>
<g><path style="opacity:0.78" fill="#989898" d="M 132.5,401.5 C 128.722,406.617 124.055,410.617 118.5,413.5C 119.833,411.833 121.167,410.167 122.5,408.5C 125.833,406.167 129.167,403.833 132.5,401.5 Z"/></g>
<g><path style="opacity:0.918" fill="#272727" d="M 253.5,407.5 C 245.826,407.334 238.159,407.5 230.5,408C 225.981,411.054 220.981,413.054 215.5,414C 213.588,416.788 210.921,418.121 207.5,418C 205.778,420.511 203.445,422.011 200.5,422.5C 202.562,419.177 205.562,417.01 209.5,416C 210.71,414.961 211.71,413.794 212.5,412.5C 212.611,411.883 212.944,411.383 213.5,411C 217.351,410.586 221.017,409.752 224.5,408.5C 234.21,406.303 243.877,405.97 253.5,407.5 Z"/></g>
<g><path style="opacity:0.718" fill="#676767" d="M 324.5,418.5 C 326.5,419.167 327.833,420.5 328.5,422.5C 326.227,422.043 324.894,420.71 324.5,418.5 Z"/></g>
<g><path style="opacity:0.247" fill="#adadad" d="M 212.5,412.5 C 211.71,413.794 210.71,414.961 209.5,416C 205.562,417.01 202.562,419.177 200.5,422.5C 198.685,423.63 196.685,424.296 194.5,424.5C 195.927,422.228 197.594,420.061 199.5,418C 203.814,416.178 208.147,414.344 212.5,412.5 Z"/></g>
<g><path style="opacity:0.671" fill="#787878" d="M 83.5,404.5 C 79.9628,419.796 85.9628,426.296 101.5,424C 105.22,422.14 108.886,420.307 112.5,418.5C 109.369,421.129 106.369,423.962 103.5,427C 95.4359,428.923 88.4359,427.09 82.5,421.5C 82.1667,418.667 81.8333,415.833 81.5,413C 81.5191,409.748 82.1858,406.915 83.5,404.5 Z"/></g>
<g><path style="opacity:0.631" fill="#777777" d="M 328.5,422.5 C 332.091,423.336 334.758,425.336 336.5,428.5C 333.437,426.975 330.77,424.975 328.5,422.5 Z"/></g>
<g><path style="opacity:0.578" fill="#9d9d9d" d="M 424.5,421.5 C 424.461,422.583 424.127,423.583 423.5,424.5C 419.935,426.445 416.102,427.445 412,427.5C 409.071,427.475 406.571,426.809 404.5,425.5C 409.179,425.666 413.845,425.499 418.5,425C 420.32,424.8 421.653,423.966 422.5,422.5C 423.167,422.167 423.833,421.833 424.5,421.5 Z"/></g>
<g><path style="opacity:0.463" fill="#c4c4c4" d="M 378.5,441.5 C 379.167,439.833 379.833,438.167 380.5,436.5C 381.117,436.389 381.617,436.056 382,435.5C 382.667,431.833 382.667,428.167 382,424.5C 380.246,422.75 378.079,422.083 375.5,422.5C 375.461,421.244 375.961,420.244 377,419.5C 379.007,420.669 381.173,421.335 383.5,421.5C 387.345,429.639 385.678,436.306 378.5,441.5 Z"/></g>
<g><path style="opacity:0.314" fill="#b2b2b2" d="M 159.5,436.5 C 158.5,436.5 157.5,436.5 156.5,436.5C 156.167,435.5 155.5,434.833 154.5,434.5C 153.062,431.284 151.895,427.951 151,424.5C 149.586,423.587 148.086,423.587 146.5,424.5C 146.611,423.883 146.944,423.383 147.5,423C 149.473,422.505 151.473,422.338 153.5,422.5C 153.447,428.079 155.447,432.745 159.5,436.5 Z"/></g>
<g><path style="opacity:0.208" fill="#a9a9a9" d="M 146.5,424.5 C 145.488,428.797 145.488,433.13 146.5,437.5C 145.685,436.571 144.852,435.571 144,434.5C 143.502,431.183 143.335,427.85 143.5,424.5C 144.5,424.5 145.5,424.5 146.5,424.5 Z"/></g>
<g><path style="opacity:0.635" fill="#6c6c6c" d="M 375.5,422.5 C 378.079,422.083 380.246,422.75 382,424.5C 382.667,428.167 382.667,431.833 382,435.5C 381.617,436.056 381.117,436.389 380.5,436.5C 380.67,434.152 381.003,431.818 381.5,429.5C 381.658,427.681 380.991,426.348 379.5,425.5C 377.809,429.358 375.476,432.858 372.5,436C 370.884,436.615 369.551,437.615 368.5,439C 356.597,442.201 346.597,439.367 338.5,430.5C 341.974,431.498 344.974,433.332 347.5,436C 354.032,438.076 360.698,438.743 367.5,438C 369.391,435.108 371.891,432.941 375,431.5C 375.498,428.518 375.665,425.518 375.5,422.5 Z"/></g>
<g><path style="opacity:0.792" fill="#4a4a4a" d="M 200.5,422.5 C 196.374,427.266 191.707,431.433 186.5,435C 183.833,436.333 181.167,437.667 178.5,439C 170.584,441.644 163.25,440.811 156.5,436.5C 157.5,436.5 158.5,436.5 159.5,436.5C 164.981,438.625 170.648,438.959 176.5,437.5C 181.833,434.167 187.167,430.833 192.5,427.5C 193.612,426.735 194.279,425.735 194.5,424.5C 196.685,424.296 198.685,423.63 200.5,422.5 Z"/></g>
<g><path style="opacity:0.784" fill="#3f3f3f" d="M 154.5,434.5 C 151.329,432.481 149.996,429.481 150.5,425.5C 149.5,425.5 148.5,425.5 147.5,425.5C 146.979,430.846 147.979,435.846 150.5,440.5C 149.167,439.5 147.833,438.5 146.5,437.5C 145.488,433.13 145.488,428.797 146.5,424.5C 148.086,423.587 149.586,423.587 151,424.5C 151.895,427.951 153.062,431.284 154.5,434.5 Z"/></g>
<g><path style="opacity:0.816" fill="#6c6c6c" d="M 380.5,436.5 C 379.833,438.167 379.167,439.833 378.5,441.5C 378.167,443.833 376.833,445.167 374.5,445.5C 375.793,441.88 377.793,438.88 380.5,436.5 Z"/></g>
<g><path style="opacity:0.863" fill="#4a4a4a" d="M 152.5,445.5 C 157.381,447.709 161.381,451.043 164.5,455.5C 161.197,453.209 157.863,450.875 154.5,448.5C 153.388,447.735 152.721,446.735 152.5,445.5 Z"/></g>
<g><path style="opacity:0.882" fill="#414141" d="M 267.5,451.5 C 264.01,445.874 261.676,446.541 260.5,453.5C 258.395,456.027 256.061,458.36 253.5,460.5C 257.202,455.298 260.702,449.965 264,444.5C 266.709,446.047 267.876,448.381 267.5,451.5 Z"/></g>
<g><path style="opacity:0.105" fill="#c4c4c4" d="M 267.5,451.5 C 267.572,454.553 268.572,457.219 270.5,459.5C 268.185,458.446 266.185,456.946 264.5,455C 265.337,453.989 265.67,452.822 265.5,451.5C 263.486,451.392 261.82,452.058 260.5,453.5C 261.676,446.541 264.01,445.874 267.5,451.5 Z"/></g>
<g><path style="opacity:0.906" fill="#626262" d="M 374.5,445.5 C 372.12,449.725 369.12,453.558 365.5,457C 360.302,460.099 354.969,462.932 349.5,465.5C 358.3,459.577 366.633,452.91 374.5,445.5 Z"/></g>
<g><path style="opacity:0.376" fill="#7a7a7a" d="M 267.5,451.5 C 270.156,454.794 272.822,458.127 275.5,461.5C 273.833,460.833 272.167,460.167 270.5,459.5C 268.572,457.219 267.572,454.553 267.5,451.5 Z"/></g>
<g><path style="opacity:0.671" fill="#969696" d="M 260.5,453.5 C 258.167,459.167 254.167,463.167 248.5,465.5C 249.882,463.451 251.548,461.785 253.5,460.5C 256.061,458.36 258.395,456.027 260.5,453.5 Z"/></g>
<g><path style="opacity:0.827" fill="#5f5f5f" d="M 180.5,465.5 C 184.776,466.32 188.776,467.653 192.5,469.5C 188.917,469.768 185.584,469.101 182.5,467.5C 181.167,467.5 180.5,466.833 180.5,465.5 Z"/></g>
<g><path style="opacity:0.843" fill="#3d3d3d" d="M 244.5,466.5 C 241.764,469.032 238.43,470.365 234.5,470.5C 237.335,468.215 240.668,466.882 244.5,466.5 Z"/></g>
<g><path style="opacity:0.9" fill="#353535" d="M 192.5,469.5 C 206.471,470.429 220.471,470.762 234.5,470.5C 233.048,471.302 231.382,471.802 229.5,472C 220.506,472.5 211.506,472.666 202.5,472.5C 198.863,472.13 195.53,471.13 192.5,469.5 Z"/></g>
<g><path style="opacity:0.92" fill="#383838" d="M 281.5,466.5 C 285.565,467.351 289.565,468.517 293.5,470C 305.495,470.5 317.495,470.667 329.5,470.5C 323.916,472.034 318.083,472.701 312,472.5C 306.474,472.393 300.974,472.059 295.5,471.5C 290.239,471.193 285.572,469.526 281.5,466.5 Z"/></g>
<g><path style="opacity:0.382" fill="#c5c5c5" d="M 182.5,467.5 C 185.584,469.101 188.917,469.768 192.5,469.5C 195.53,471.13 198.863,472.13 202.5,472.5C 202.5,472.833 202.5,473.167 202.5,473.5C 195.748,472.824 189.081,471.824 182.5,470.5C 182.5,469.5 182.5,468.5 182.5,467.5 Z"/></g>
<g><path style="opacity:0.634" fill="#8b8b8b" d="M 248.5,465.5 C 244.815,469.582 240.149,472.082 234.5,473C 223.839,473.5 213.172,473.667 202.5,473.5C 202.5,473.167 202.5,472.833 202.5,472.5C 211.506,472.666 220.506,472.5 229.5,472C 231.382,471.802 233.048,471.302 234.5,470.5C 238.43,470.365 241.764,469.032 244.5,466.5C 245.833,466.167 247.167,465.833 248.5,465.5 Z"/></g>
<g><path style="opacity:0.707" fill="#8d8d8d" d="M 339.5,469.5 C 336.443,471.095 333.11,472.262 329.5,473C 319.167,473.667 308.833,473.667 298.5,473C 297.263,472.768 296.263,472.268 295.5,471.5C 300.974,472.059 306.474,472.393 312,472.5C 318.083,472.701 323.916,472.034 329.5,470.5C 332.86,470.384 336.193,470.051 339.5,469.5 Z"/></g>
</svg>
