<?xml version="1.0" standalone="no"?>
<!DOCTYPE svg PUBLIC "-//W3C//DTD SVG 20010904//EN"
 "http://www.w3.org/TR/2001/REC-SVG-20010904/DTD/svg10.dtd">
<svg version="1.0" xmlns="http://www.w3.org/2000/svg"
 width="500.000000pt" height="485.000000pt" viewBox="0 0 500.000000 485.000000"
 preserveAspectRatio="xMidYMid meet">

<g transform="translate(0.000000,485.000000) scale(0.100000,-0.100000)"
fill="#000000" stroke="none">
<path d="M990 4589 c-25 -23 -58 -47 -75 -54 -16 -7 -43 -27 -59 -44 -17 -17
-36 -31 -43 -31 -7 0 -13 -6 -13 -12 -1 -7 -26 -31 -56 -53 -117 -84 -256
-221 -308 -303 -13 -21 -37 -52 -53 -68 -15 -17 -47 -58 -71 -92 -24 -33 -50
-66 -58 -73 -8 -6 -14 -28 -14 -49 0 -33 7 -44 68 -100 37 -34 98 -83 136
-109 101 -68 107 -73 154 -117 24 -22 69 -56 100 -74 31 -19 70 -44 85 -57 16
-13 34 -23 40 -23 7 0 44 -21 82 -46 39 -25 82 -52 97 -60 44 -23 60 -44 53
-72 -3 -14 -13 -31 -22 -37 -9 -7 -13 -17 -9 -23 4 -7 2 -12 -4 -12 -7 0 -10
-7 -6 -15 3 -8 2 -15 -3 -15 -15 0 -30 -75 -30 -158 -1 -105 20 -210 55 -270
15 -26 43 -76 64 -112 43 -78 224 -296 288 -348 26 -20 64 -54 86 -75 22 -21
58 -48 80 -59 60 -31 97 -60 107 -85 4 -13 16 -21 27 -20 29 2 89 -41 96 -68
10 -39 -3 -74 -30 -81 -13 -3 -24 -11 -24 -17 0 -6 -51 -60 -112 -121 -62 -61
-133 -135 -158 -164 -24 -28 -52 -55 -62 -58 -10 -3 -18 -11 -18 -18 0 -6 -13
-20 -29 -29 -17 -10 -51 -43 -78 -75 -68 -81 -74 -86 -117 -115 -21 -14 -46
-37 -55 -50 -28 -43 -182 -217 -192 -217 -5 0 -14 -10 -20 -22 -5 -13 -21 -38
-34 -57 -20 -27 -25 -46 -25 -93 0 -33 5 -68 10 -79 17 -30 69 -52 127 -51 66
0 160 50 220 115 23 25 58 57 78 72 20 16 144 136 276 267 132 132 246 237
252 235 7 -2 14 -14 15 -28 9 -61 61 -79 127 -45 25 14 67 28 93 32 26 3 117
22 202 42 85 19 167 35 182 35 15 0 25 3 23 7 -3 5 6 7 20 6 14 0 25 -5 25
-11 0 -5 4 -5 8 2 5 8 57 11 182 9 203 -4 191 -3 295 -27 44 -10 91 -21 105
-23 14 -3 51 -14 82 -25 32 -12 69 -21 83 -21 14 0 38 -6 53 -14 15 -7 45 -17
67 -20 35 -6 64 -31 235 -198 107 -105 238 -228 290 -273 52 -46 108 -97 124
-114 29 -30 33 -31 111 -31 72 0 85 3 110 24 26 22 29 32 33 103 3 64 1 81
-12 92 -9 7 -16 19 -16 27 0 14 -104 123 -532 557 -188 191 -278 288 -278 303
0 11 5 35 11 53 l11 31 106 0 c274 1 377 34 496 160 36 39 77 88 92 109 30 47
69 156 84 242 6 34 18 72 27 85 12 18 15 58 14 196 0 95 -3 184 -6 198 -4 14
-7 31 -7 38 -1 6 -5 12 -9 12 -7 0 -24 59 -21 73 1 4 -2 7 -7 7 -5 0 -13 15
-16 33 -4 17 -20 48 -35 67 -15 19 -34 49 -43 65 -9 17 -32 43 -51 58 -53 41
-49 69 13 95 27 11 75 37 107 58 33 21 72 44 88 51 15 7 56 34 90 61 33 26 72
53 86 59 14 6 48 30 75 55 28 24 66 55 85 68 19 13 40 28 45 34 19 22 130 102
158 114 44 19 60 79 30 110 -10 9 -23 29 -30 44 -14 31 -200 264 -286 358 -33
36 -81 81 -108 100 -26 19 -75 55 -109 80 -34 25 -90 70 -124 101 -33 32 -80
67 -103 79 -38 20 -46 20 -79 8 -20 -7 -39 -20 -43 -28 -9 -22 -71 -108 -107
-149 -17 -20 -39 -51 -48 -69 -9 -18 -42 -65 -72 -105 -31 -39 -63 -85 -71
-101 -9 -17 -43 -60 -75 -97 -63 -70 -90 -113 -80 -125 4 -4 2 -4 -4 -1 -14 8
-49 -55 -64 -115 -7 -28 -18 -48 -26 -48 -7 0 -38 24 -67 53 -142 138 -192
162 -337 160 -67 -1 -166 -24 -180 -42 -5 -6 -53 -38 -165 -110 -21 -14 -101
-86 -176 -158 -75 -73 -140 -133 -144 -133 -4 0 -26 -16 -48 -36 l-40 -37 -73
7 c-40 4 -111 20 -159 36 -85 29 -160 36 -392 39 -46 1 -53 4 -53 21 0 10 9
24 19 30 34 18 62 76 66 136 4 61 -2 87 -16 78 -5 -3 -6 3 -2 12 5 13 3 15 -7
9 -9 -5 -11 -4 -6 4 8 13 -70 151 -86 151 -5 0 -7 4 -3 9 3 5 -3 16 -12 23
-10 7 -18 20 -18 28 0 8 -6 14 -13 12 -8 -1 -11 2 -7 8 6 9 -69 119 -182 267
-17 24 -37 59 -44 78 -7 20 -20 35 -29 35 -15 0 -54 45 -120 138 -40 55 -69
56 -130 1z m33 -238 c45 -41 107 -126 107 -145 0 -10 20 -38 44 -64 146 -156
206 -227 206 -243 0 -11 17 -29 40 -44 34 -22 80 -77 80 -95 -1 -23 -24 -35
-66 -34 -43 1 -69 17 -58 36 6 9 -42 67 -194 236 -50 57 -104 123 -118 147
-14 24 -34 47 -44 50 -11 3 -37 27 -60 52 -44 50 -53 98 -24 128 20 20 49 12
87 -24z m3145 -10 c2 -11 -1 -21 -7 -21 -6 0 -17 -15 -25 -34 -8 -19 -30 -52
-50 -74 -20 -22 -36 -46 -36 -54 0 -17 -93 -108 -109 -108 -6 0 -19 -17 -30
-37 -22 -44 -48 -69 -75 -74 -11 -2 -23 -16 -27 -32 -4 -15 -19 -41 -33 -58
-15 -17 -35 -51 -46 -74 -19 -42 -22 -43 -56 -39 -47 6 -54 11 -54 37 0 33 30
71 84 109 52 35 105 116 109 163 1 16 11 30 27 38 13 7 59 52 101 102 43 49
87 92 98 97 12 4 21 16 21 27 0 10 14 33 30 51 28 30 32 31 53 18 12 -9 23
-25 25 -37z m-3387 -190 c24 -21 51 -50 58 -65 8 -14 22 -26 32 -26 10 0 24
-12 31 -27 7 -15 26 -34 41 -41 15 -7 61 -52 103 -100 42 -48 115 -121 162
-163 102 -89 114 -103 132 -147 16 -41 1 -62 -45 -62 -29 0 -56 24 -264 236
-127 130 -231 240 -231 245 0 5 -5 9 -10 9 -6 0 -33 20 -59 45 -72 68 -74 130
-5 134 6 1 31 -16 55 -38z m3636 17 c13 -12 23 -26 23 -33 0 -6 -25 -35 -56
-65 -31 -30 -60 -65 -65 -77 -5 -13 -16 -23 -26 -23 -10 0 -39 -21 -64 -47
-25 -27 -95 -95 -155 -152 -60 -58 -116 -117 -126 -132 -9 -16 -36 -34 -63
-45 -30 -11 -50 -26 -56 -41 -5 -13 -15 -26 -23 -29 -19 -7 -66 24 -66 45 0
28 28 59 59 66 20 4 44 25 73 62 81 105 210 231 261 253 36 16 52 30 68 63 22
45 154 176 178 177 8 0 25 -10 38 -22z m-3802 -277 c132 -115 178 -153 225
-184 71 -48 287 -255 295 -284 7 -25 -27 -66 -50 -61 -7 2 -102 80 -211 173
-109 94 -214 181 -234 195 -21 14 -62 45 -93 70 -48 38 -57 50 -57 77 0 17 7
39 16 47 14 14 19 14 52 0 20 -8 46 -23 57 -33z m3983 -22 c2 -32 -1 -36 -60
-74 -126 -80 -229 -158 -245 -186 -10 -16 -21 -29 -25 -29 -4 0 -46 -35 -93
-77 -90 -81 -167 -127 -197 -117 -26 8 -23 51 5 65 35 18 67 51 84 87 9 19 35
45 57 59 88 54 117 77 137 109 11 18 33 40 50 49 16 8 43 22 60 31 17 9 40 31
51 49 33 57 95 88 148 75 20 -5 26 -13 28 -41z m-1413 -101 c41 -8 59 -16 63
-30 2 -10 8 -18 12 -18 4 0 26 -37 50 -83 50 -100 59 -157 60 -393 l0 -161 38
-10 c49 -14 72 -13 72 4 0 8 4 12 8 9 5 -3 6 9 4 26 -3 20 -1 29 6 24 7 -4 10
4 10 21 -2 108 3 193 13 193 5 0 7 -5 3 -12 -4 -7 -3 -8 5 -4 18 11 63 -2 55
-16 -4 -7 -3 -8 4 -4 33 20 273 -159 299 -223 8 -20 26 -48 40 -63 42 -44 125
-217 136 -283 6 -33 11 -136 11 -230 1 -191 8 -166 -97 -342 -74 -125 -107
-149 -225 -170 -112 -20 -287 -12 -392 17 -172 47 -179 53 -99 80 64 22 152
82 185 127 16 21 31 40 34 43 3 3 11 18 18 33 7 16 33 61 59 100 67 102 75
179 22 208 -24 13 -64 -9 -79 -44 -6 -12 -14 -29 -20 -37 -5 -8 -19 -41 -31
-73 -16 -46 -37 -74 -99 -135 -95 -94 -105 -102 -127 -102 -10 0 -36 -10 -58
-22 -44 -24 -83 -31 -265 -53 -234 -27 -308 -29 -421 -11 -57 9 -121 22 -143
28 -21 7 -47 11 -57 11 -10 -1 -21 2 -24 7 -3 5 -13 6 -22 3 -11 -4 -14 -3 -9
6 5 8 3 11 -5 10 -8 -1 -27 3 -44 10 -16 7 -46 19 -66 26 -64 23 -119 65 -206
154 -54 56 -96 109 -118 153 -21 40 -43 69 -55 73 -31 10 -77 -13 -90 -45 -10
-24 -8 -33 12 -63 13 -19 48 -72 79 -118 61 -92 175 -209 242 -247 23 -14 52
-34 65 -45 12 -11 22 -17 22 -14 0 4 17 0 38 -7 99 -38 351 -59 532 -43 58 4
170 7 250 5 134 -3 149 -5 196 -30 64 -33 104 -79 150 -169 29 -59 38 -91 50
-187 8 -64 14 -151 14 -194 0 -76 -1 -78 -25 -78 -29 0 -86 13 -205 45 -127
35 -141 38 -190 36 -25 0 -74 3 -108 7 -72 10 -399 -4 -416 -17 -6 -4 -40 -14
-76 -20 -36 -7 -105 -23 -155 -36 -110 -29 -181 -40 -188 -28 -3 4 -8 114 -12
243 -3 129 -8 253 -11 276 -6 52 -48 98 -118 129 -30 13 -57 28 -60 34 -4 5
-39 31 -79 58 -106 70 -357 329 -357 368 0 9 -11 31 -25 50 -14 18 -29 50 -32
72 -3 21 -11 45 -18 53 -32 37 -45 94 -45 192 0 135 23 232 64 271 17 16 25
27 18 23 -10 -6 -10 -2 -1 18 7 14 16 23 22 19 6 -3 7 -1 3 5 -10 16 11 52 30
52 8 0 12 -4 9 -10 -13 -22 3 -8 55 47 l55 58 -52 -50 c-29 -27 -53 -45 -53
-39 0 9 65 69 114 103 17 13 18 13 11 0 -6 -10 -3 -9 11 2 17 15 32 20 99 33
11 2 32 9 48 15 39 15 380 16 440 1 39 -10 47 -16 47 -36 0 -13 -8 -25 -18
-28 -10 -4 -45 -22 -78 -42 -54 -33 -65 -36 -129 -35 -59 2 -74 6 -95 26 -52
50 -109 50 -132 0 -10 -23 -8 -29 23 -61 70 -75 106 -94 173 -94 108 0 226 45
319 122 32 26 63 48 69 48 6 0 19 12 30 26 11 14 52 47 90 74 38 27 89 65 111
85 75 66 395 266 465 291 46 16 190 18 267 2z"/>
<path d="M4236 2857 c3 -10 9 -15 12 -12 3 3 0 11 -7 18 -10 9 -11 8 -5 -6z"/>
<path d="M2302 1114 c-27 -18 -45 -75 -45 -139 0 -83 38 -122 98 -99 28 11 45
60 45 132 0 62 -3 71 -27 92 -34 30 -46 32 -71 14z"/>
<path d="M2844 1109 c-40 -45 -25 -218 21 -235 77 -30 137 120 89 222 -14 30
-21 34 -54 34 -25 0 -43 -7 -56 -21z"/>
<path d="M2345 779 c-112 -11 -207 -39 -233 -71 -13 -15 -30 -28 -38 -28 -8 0
-31 -16 -53 -35 -21 -19 -42 -35 -47 -35 -4 0 -19 -10 -33 -23 -41 -37 -173
-114 -209 -122 -19 -4 -62 -2 -97 5 -71 13 -96 33 -115 93 -23 73 -60 58 -60
-25 0 -38 6 -53 30 -79 16 -18 30 -42 32 -53 2 -11 23 -35 48 -53 25 -18 64
-51 88 -73 47 -44 168 -108 195 -104 9 1 15 -2 11 -7 -3 -5 8 -9 24 -9 16 0
47 -7 67 -16 53 -22 360 -16 420 8 22 9 55 22 74 29 39 16 161 137 161 160 0
9 6 22 14 28 12 10 28 -5 89 -81 65 -83 82 -98 138 -123 62 -28 69 -29 229
-29 195 -1 304 10 345 36 16 10 37 18 46 18 9 0 35 14 59 31 23 17 39 26 35
19 -5 -8 -1 -7 13 1 12 7 19 16 16 20 -2 4 1 11 7 15 8 4 9 3 5 -4 -17 -28 19
-8 62 34 26 25 40 42 32 38 -8 -5 6 14 33 40 26 27 45 51 42 54 -3 3 3 15 14
26 21 23 29 77 16 115 -7 25 -8 24 -26 -12 -28 -53 -86 -106 -126 -113 -88
-17 -184 13 -253 78 -19 18 -61 53 -92 77 -32 24 -58 47 -58 51 0 8 -71 41
-164 75 -38 14 -76 31 -84 38 -10 8 -57 12 -146 12 -128 0 -132 -1 -167 -27
-44 -34 -55 -34 -110 -4 -48 26 -130 35 -234 25z m1315 -463 c0 -2 -8 -10 -17
-17 -16 -13 -17 -12 -4 4 13 16 21 21 21 13z"/>
</g>
</svg>
